<?xml version="1.0" encoding="UTF-8"?>
<svg version="1.1" viewBox="0 0 3840 2160" xmlns="http://www.w3.org/2000/svg" xmlns:xlink="http://www.w3.org/1999/xlink">
 <image width="3840" height="2160" style="image-rendering:optimizeQuality" preserveAspectRatio="none" xlink:href="resources/ColoredCleaned.png">
 <path d="m161.42 356.35c-0.47199-2.8319 4.2479-13.688 4.2479-13.688l7.0798-12.272 10.856-10.384 4.2479-23.599-2.3599-38.703 5.6638-2.8319 2.8319-18.408 3.3039-5.6638-3.3039-11.8 10.856-9.9117 3.3039-8.4958 29.735-21.711 33.039-10.384 35.871 0.94397 23.599 14.16 13.216 11.328 4.2479 8.9678 13.688 15.104 6.1358 1.416 5.6638 8.9678 12.272 7.0798-2.8319 9.9117-15.576 4.7199-18.879 4.2479s-10.856 12.744-11.8 14.632c-0.94398 1.888-2.3599 16.048-6.1358 19.351-3.7759 3.3039-12.272 6.6078-14.632 9.9117-2.3599 3.3039-16.048 24.543-16.048 27.847 0 3.3039 7.0798 17.464 8.0238 20.767 0.94397 3.3039 9.4397 26.431 9.4397 29.263s-7.5518 25.959-8.9678 29.735c-1.416 3.7759-3.3039 10.384-8.9678 9.9117-5.6638-0.47199-12.272-5.1919-12.272-5.1919l-13.216-3.3039s-10.856-6.6078-13.216-6.6078h-10.384s-2.8319-5.6638-3.3039-7.5518c-0.47199-1.888-8.9678-12.272-12.272-13.688s-13.216-1.888-13.216-1.888-15.104 1.416-17.464 1.416-15.576-0.47198-15.576-0.47198l-4.2479-7.0798 8.4958-4.2479 1.416-6.1358-8.0238-3.7759-7.5518-0.94397s-9.9117 4.7199-11.8 4.7199-5.1919-5.6638-5.1919-5.6638z" style="fill:none;stroke-width:1px;stroke:#000"/>
</svg>
