<svg id="svg9" version="1.1" viewBox="0 0 3840 2160" xmlns="http://www.w3.org/2000/svg" xmlns:xlink="http://www.w3.org/1999/xlink">
	<g id="g15">
		<path id="path351" d="m161.42 356.35c-0.47199-2.8319 4.2479-13.688 4.2479-13.688l7.0798-12.272 10.856-10.384 4.2479-23.599-2.3599-38.703 5.6638-2.8319 2.8319-18.408 3.3039-5.6638-3.3039-11.8 10.856-9.9117 3.3039-8.4958 29.735-21.711 33.039-10.384 35.871 0.94397 23.599 14.16 13.216 11.328 4.2479 8.9678 13.688 15.104 6.1358 1.416 5.6638 8.9678 12.272 7.0798-2.8319 9.9117-15.576 4.7199-18.879 4.2479s-10.856 12.744-11.8 14.632c-0.94398 1.888-2.3599 16.048-6.1358 19.351-3.7759 3.3039-12.272 6.6078-14.632 9.9117-2.3599 3.3039-16.048 24.543-16.048 27.847 0 3.3039 7.0798 17.464 8.0238 20.767 0.94397 3.3039 9.4397 26.431 9.4397 29.263s-7.5518 25.959-8.9678 29.735c-1.416 3.7759-3.3039 10.384-8.9678 9.9117-5.6638-0.47199-12.272-5.1919-12.272-5.1919l-13.216-3.3039s-10.856-6.6078-13.216-6.6078h-10.384s-2.8319-5.6638-3.3039-7.5518c-0.47199-1.888-8.9678-12.272-12.272-13.688s-13.216-1.888-13.216-1.888-15.104 1.416-17.464 1.416-15.576-0.47198-15.576-0.47198l-4.2479-7.0798 8.4958-4.2479 1.416-6.1358-8.0238-3.7759-7.5518-0.94397s-9.9117 4.7199-11.8 4.7199-5.1919-5.6638-5.1919-5.6638z" style="fill:none;stroke-width:1px;stroke:#000"/>
		<path id="path161" d="m405.5 256.65-8.6774-9.3449-11.21-10.84-2.8319 9.9117-15.576 4.7199-18.879 4.2479-12.579 14.989-3.0037 16.687-5.3399 5.6737-10.346 7.0087-15.686 24.03-0.66749 9.3449 17.355 43.387-6.6749 19.691-9.0111 20.358 20.025 13.35 39.382-4.005 9.6786-16.02s10.68-17.021 13.016-20.358 9.3449-22.027 11.681-22.361c2.3362-0.33375 43.721-11.681 44.722-13.016 1.0012-1.335 19.357-23.362 19.357-23.362l10.346-19.023s2.0025-11.014 0.33375-11.347c-1.6687-0.33375-9.3449-0.66749-12.015-2.3362-2.67-1.6687-9.3449-4.3387-10.68-5.6737s-2.3362-6.3412-2.3362-6.3412l-7.0087-4.005-2.67-10.68-6.0074-3.0037-14.017-5.6737z" style="fill:none;stroke-width:1px;stroke:#000"/>
		<path id="path163" d="m494.94 442.55s-17.021-7.0086-20.025-9.3449-20.025-13.684-24.03-14.685c-4.005-1.0012-17.021-2.67-21.026-1.6687-4.005 1.0012-11.681 5.6737-14.017 5.6737-2.3362 0-11.014-5.0062-16.02-6.3412-5.0062-1.335-11.681-1.6687-13.016-1.0012-1.335 0.66749-25.031 10.68-25.031 10.68l22.027-34.71s6.3412-22.361 10.68-23.362 44.054-12.682 46.724-12.682 19.023-24.363 19.023-24.363l10.346-19.023 3.6712-10.68s4.005-0.66749 5.3399 0.66749 9.6786 8.6774 9.6786 8.6774 4.3387 2.3362 5.6737 2.3362c1.335 0 9.6786-0.33375 9.6786-0.33375s5.0062 4.0049 8.0099 3.6712c3.0037-0.33375 5.0062-1.6687 8.0099 0.33374 3.0037 2.0025 10.68 6.3412 10.68 6.3412s13.016 0.66749 15.352 1.0012c2.3362 0.33375 8.3436 1.6687 10.68 2.67 2.3362 1.0012 10.68 0.33374 13.684 1.335 3.0037 1.0012 16.354 3.0037 16.354 3.0037s9.6786-0.6675 12.349-0.6675 20.692 2.67 20.692 2.67l33.375 5.3399s13.684 4.6724 16.02 5.6737c2.3362 1.0012 13.35 4.6724 13.35 4.6724s8.3436-0.66749 10.346-0.33375c2.0025 0.33375 13.016 7.3424 13.016 7.3424s8.5202 6.1453 9.8552 7.1465c1.335 1.0012 17.316 5.007 18.651 5.3407 1.335 0.33374 3.2963 7.814 4.6313 8.8152s10.327 2.1194 10.327 2.1194 4.3185-0.5893 5.6535-0.25556c1.335 0.33375 9.5609-2.2395 11.563-1.572 2.0025 0.66749 23.089 8.1091 23.089 8.1091h10.346l7.0086 6.6749 2.0025 15.352s5.6737 5.0062 8.0099 6.3412c2.3362 1.335-1.0012 8.0099-1.0012 8.0099s-0.33374 9.0111-1.6687 10.346-5.3399 3.0037-5.3399 3.0037-3.0037-12.015-5.0062-11.347-2.67 1.335-2.67 1.335l-1.335 6.0074 2.0025 14.017-4.3387 0.66749-9.0111-7.0086s-15.686 3.3374-16.354 5.0062c-0.66749 1.6687-10.68 7.3424-10.68 7.3424l-2.67 9.0111s3.0037 6.6749 6.0074 7.6761c3.0037 1.0012 11.014 3.6712 11.014 3.6712l-7.6761 3.3375-7.3424-1.0012s-9.6786 5.0062-11.347 5.6737c-1.6687 0.66749-6.0074 3.0037-7.6762 4.6724-1.6687 1.6687-3.6712 7.0086-3.0037 9.3449 0.66749 2.3362 8.6774 8.0099 8.6774 8.0099l-7.0086 5.3399s-3.3374 3.3375-7.3424 4.3387c-4.0049 1.0012-11.347 1.335-21.026 0.66749-9.6786-0.66749-50.729-3.3374-61.075-4.6724-10.346-1.335-52.732-16.687-59.74-18.356-7.0086-1.6687-40.049-14.685-44.054-16.02-4.005-1.335-53.066-30.037-53.066-30.037z" style="fill:none;stroke-width:1px;stroke:#000"/>
		<path id="path169" d="m265.02 416.53 14.16 0.23599s4.9559 7.0798 5.8998 7.5518c0.94398 0.47199 10.148 3.0679 10.148 3.0679l7.1453-10.87 20.025 13.35 39.382-4.005s18.406 9.3131 19.35 10.493c0.94397 1.18-5.4278 24.779-6.6078 25.959s-20.767 23.363-26.667 30.443-64.19 80.71-65.842 83.07c-1.652 2.3599-16.048 42.715-18.172 46.255-2.124 3.5399-30.207 35.635-36.815 37.759-6.6078 2.124-40.827 11.8-44.603 12.744-3.7759 0.94397-27.139 21.003-28.555 22.183-1.416 1.18-15.104 10.148-16.048 10.384-0.94398 0.23599-8.2598-4.9559-8.2598-4.9559s-0.94397-48.851-1.18-51.211c-0.23599-2.3599-1.18-6.1358-1.18-6.1358s3.0679-0.94397 3.5399-1.888c0.47199-0.94397 1.416-11.328 2.3599-12.272 0.94397-0.94398 8.7318-10.62 10.856-12.744s4.2479-9.6757 5.1919-10.148c0.94398-0.47199 0.70798-0.94398 2.8319 0 2.124 0.94397 13.216 1.416 14.396 0.94397 1.18-0.47199 5.6638-2.5959 6.6078-3.3039 0.94397-0.70798 3.5399-5.4278 3.5399-5.4278l3.7759-8.0238 4.2479 1.18 1.888-4.7199-4.9559-5.1919 3.3039-4.9559s2.1239-4.7199 1.18-4.7199h-4.0119s-0.47198-0.47198 0.47199-2.3599 6.1358-9.6757 6.1358-9.6757l1.18-32.803-4.4839-12.98-6.1358-10.62-0.70798-12.98 3.7759 4.2479 5.6638-1.652 2.124-4.2479s5.8998-4.0119 9.6757-4.0119c3.7759 0 8.0238-1.888 10.148-1.888s10.148-0.70798 12.508-1.888 7.5518-4.9559 7.5518-4.9559 5.4278-2.8319 6.8438-4.7199c1.416-1.888-0.70798-18.644-0.70798-18.644l-5.1919-5.8998h-7.7878s-3.7759-3.7759-4.7199-3.7759c-0.94398 0-6.8438 0.236-8.9678 0-2.1239-0.23599-8.4958-4.0119-9.6757-3.5399-1.18 0.47198-10.148 4.4839-11.564 5.4278-1.416 0.94398-7.0798 3.0679-8.9678 3.0679h-13.924l-1.18-5.6638 6.8438-1.652 8.4958-2.3599 0.236-2.8319s-6.6078-1.652-9.6757-2.124c-3.0679-0.47198-13.216-8.2598-14.396-9.2038-1.18-0.94397-2.5959-5.6638-2.1239-7.7878 0.47198-2.1239 8.4958-11.328 8.4958-11.328s4.9559-1.652 6.8438-0.70798 3.3039 5.8998 4.2479 6.3718c0.94397 0.47198 5.1919 1.652 6.6078 2.1239s4.4839 0.47199 7.0798 0.47199h10.62c1.652 0 3.0679 1.18 4.4839 2.1239 1.416 0.94397 3.0679 2.5959 7.0798 3.0679 4.0119 0.47198 4.9559-0.70798 8.2598-0.94398 3.3039-0.23599 4.0119 0.236 5.1919 1.18s14.632 1.18 16.756 1.652c2.1239 0.47198 8.7318 0.23599 9.6757 0.23599h9.4398c1.416 0 6.8438-3.7759 6.8438-3.7759z" style="fill:none;stroke-width:1px;stroke:#000"/>
		<path id="path171" d="m525.65 460.9s10.68 29.036 11.347 35.377c0.66749 6.3412 10.346 29.703 13.684 33.708 3.3374 4.0049 6.3412 26.032 4.3387 29.703-2.0025 3.6712-18.022 23.696-20.358 28.702s-7.6761 20.025-7.3424 27.701c0.33375 7.6761 5.0062 19.023 7.6762 21.693 2.67 2.67 21.026 6.0074 27.367 5.6737 6.3412-0.33374 10.68-3.3374 14.017 2.3362 3.3375 5.6737 13.684 21.026 15.019 25.365 1.335 4.3387-10.68 4.0049-12.015 3.6712-1.335-0.33374-4.3387 5.3399-4.6724 8.0099-0.33375 2.67 7.0086 11.014 9.3449 12.349 2.3362 1.335 7.6761 3.6712 9.3449 5.3399 1.6687 1.6687 15.019 50.396 15.686 52.064 0.66749 1.6687 1.335 22.695 1.335 22.695s23.696 9.3449 28.702 12.682c5.0062 3.3375 30.705 9.0111 33.708 9.0111s18.022-5.0062 18.022-5.0062 2.0025-6.3412 1.335-10.012-0.66749-12.682-0.66749-12.682 7.6762-4.0049 9.0111-4.3387c1.335-0.33374 6.3412-10.346 6.3412-10.346s0.66749-6.0074 2.67-6.0074 12.015 0 13.684-0.66749c1.6687-0.66749 4.005-10.346 4.005-11.681s10.346-8.6774 10.346-8.6774 5.0062-6.3412 4.3387-9.3449-4.6724-10.012-4.6724-10.012 3.3374-3.3374 4.6724-4.0049 3.6712-2.3362 6.0074-3.0037 6.0074 0.66749 8.0099 3.3374c2.0025 2.67 4.3387 4.6724 8.0099 6.0074s6.6749 5.3399 6.6749 5.3399 18.69 5.3399 20.025 6.0074c1.335 0.66749 11.347 1.0012 13.684 0.66749 2.3362-0.33374 11.681-5.6737 11.681-5.6737s-5.0062-5.6737 1.0012-7.3424c6.0074-1.6687 9.3449-2.67 11.681-2.67 2.3362 0 7.0086 1.335 12.682 1.0012 5.6737-0.33375 12.015-4.005 15.019-4.6724s8.3436-2.0025 11.347-3.3374c3.0037-1.335 1.0012-5.0062 6.6749-5.0062s11.681-1.6687 12.015-3.0037c0.33374-1.335-1.6687-10.346 0.66749-11.681 2.3362-1.335-2.3362-2.3362 4.3387-2.67 6.6749-0.33375 14.351-2.0025 20.025-2.0025s14.017-2.3362 16.687-4.005c2.67-1.6687 9.0111-5.0062 8.6774-7.3424-0.33375-2.3362-8.0099-4.6724-1.6687-5.6737 6.3412-1.0012 9.6786-2.67 15.019-2.67s10.012-1.335 10.012-1.335 3.3374 0 3.6712-4.005c0.33374-4.0049-2.3362-5.6737 0.66749-6.6749 3.0037-1.0012 6.3412 0 8.0099-3.6712s4.3387-10.012 3.6712-11.347c-0.66749-1.335-3.6712-3.0037-5.0062-6.3412-1.335-3.3374-1.335 0-4.005-6.6749-2.67-6.6749-2.3362-15.352-2.67-17.021-0.33375-1.6687-4.0049-3.0037-5.0062-5.0062s-2.3362-5.6737 0.33375-6.6749c2.67-1.0012 7.0086-1.6687 8.6774-3.0037 1.6687-1.335 2.67-6.3412 1.335-8.0099-1.335-1.6687-5.3399-9.6786-5.3399-9.6786s-3.6712 1.0012-5.6737-0.33374c-2.0025-1.335-4.005 1.6687-2.67-3.3375 1.335-5.0062 2.67-6.3412 5.3399-6.3412s2.3362-1.0012 3.3375-5.6737c1.0012-4.6724 3.0037-6.0074 2.3362-7.6761-0.66749-1.6687-2.67-4.6724-3.3374-8.6774-0.66749-4.005-1.335-6.3412-5.3399-5.3399-4.0049 1.0012-9.3449 2.67-11.347 2.0025s-14.017-15.686-14.017-15.686-6.3412 2.3362-8.0099 2.0025c-1.6687-0.33374-2.67-4.0049-2.67-4.0049s-1.6687-3.3374-3.3374-3.6712-7.6761-1.0012-7.6761-1.0012-3.6712-2.0025-4.3387-4.6724-3.3375-8.6774-3.3375-8.6774l-6.3412-3.6712s-4.6724-2.0025-4.6724-3.3374v-7.0087l-7.6762-1.0012-12.349-4.3387-2.67 5.3399-6.6749-2.3362s-1.0012-3.6712-2.67-4.6724c-1.6687-1.0012-1.6687-4.3387-7.6761-4.6724-6.0074-0.33375-10.68-1.335-13.016-1.0012s-9.6786 4.0049-11.681 4.6724c-2.0025 0.66749-10.68 3.6712-13.016 5.0062-2.3362 1.335-8.3436 6.6749-11.014 9.6786-2.67 3.0037-2.67 4.005-2.67 5.3399s6.0074 10.012 6.0074 10.012 3.0037 5.0062 3.0037 7.0086 2.0025 10.012 1.0012 13.016c-1.0012 3.0037-6.3412 5.6737-8.3436 7.6761-2.0025 2.0025-4.6724 11.681-4.6724 13.016s-3.3374 6.0074-7.0086 4.005c-3.6712-2.0025-4.6724-3.6712-6.3412-3.6712s-18.356 2.3362-19.691 3.0037c-1.335 0.66749-5.6737 5.6737-5.6737 5.6737s-3.3374 0.33374-5.3399-0.33375c-2.0025-0.66749-6.6749-6.6749-6.6749-6.6749s-2.3362-5.0062 0-6.0074c2.3362-1.0012 9.0111-2.67 5.3399-6.0074-3.6712-3.3374-10.68-6.3412-10.68-9.6786 0-3.3375 0.66749-9.0111 0.66749-9.0111l-7.0086-3.0037-1.0012-1.6687s-13.35 3.3374-17.021 2.67-62.744-4.3387-67.083-5.3399c-4.3387-1.0012-85.105-27.367-85.105-27.367z" style="fill:none;stroke-width:1px;stroke:#000"/>
		<path id="path173" d="m696.03 804.33c0 1.6687-0.16688 7.6761-0.16688 7.6761s1.8356 2.67 3.3375 4.0049c1.5018 1.335 3.3374 4.8393 6.0074 5.8406 2.67 1.0012 5.6737 2.1693 8.0099 2.8368s3.8381-0.83436 3.5043-1.5018c-0.33375-0.66749-2.0025-1.335-0.16687-3.5043 1.8356-2.1693 2.1693-3.6712 5.8405-4.0049 3.6712-0.33375 6.508 7.6761 8.1768 8.1768s2.1694 0.33375 5.3399 0.50062 8.0099-2.0025 10.179-2.67c2.1694-0.6675 3.5043-4.1718 3.5043-4.1718s-4.1718-1.0012-5.6737-1.1681c-1.5019-0.16687-7.5093-7.1755-8.1768-8.8442-0.66749-1.6687-2.5031-4.6724-1.0012-5.3399 1.5018-0.66749 4.1718-2.3362 8.1768-1.8356s5.6737 0.83437 8.3436 0.50062c2.67-0.33375 3.8381-0.66749 3.3375-4.0049-0.50062-3.3375-3.1706-4.1718-0.66749-5.6737 2.5031-1.5018 5.173 0.33375 7.3424-4.3387 2.1694-4.6724 2.1694-10.68 1.0012-11.681-1.1681-1.0012-1.8356-1.8356-3.6712-0.66749s-5.6737 3.1706-6.8418 1.8356c-1.1681-1.335-7.0086-10.68-7.0086-10.68s-5.0062-0.83436-6.8418-0.33374-7.0086 1.0012-8.1768 1.6687c-1.1681 0.66749-20.192 1.1681-20.859 1.5018s-4.5056 10.68-4.5056 10.68 0.16687 7.1755 0.83436 8.0099 4.1718 4.5056 4.6724 6.3412 2.0025 3.3375 0.50062 5.3399c-1.5019 2.0025-6.0074 2.0025-6.0074 2.0025s1.6687 0.66749 3.6712 5.3399c2.0025 4.6724 3.0037 8.1768 2.8368 10.179-0.16687 2.0025-1.5018 4.6724-3.5043 3.3374s-10.513-16.187-10.513-16.187z" style="fill:none;stroke-width:1px;stroke:#000"/>
		<path id="path175" d="m751.76 725.06c-0.16687 3.8381 1.5019 7.0087 1.1681 8.3436s0.33375 2.1693-1.1681 4.6724c-1.5018 2.5031-3.0037 4.005-3.6712 5.5068s-2.3362 1.0012 0.66749 2.3362c3.0037 1.335 3.1706-1.0012 5.3399 3.1706 2.1693 4.1718 0.66749 2.3362 3.0037 4.3387 2.3362 2.0025 4.3387 3.8381 5.6737 4.0049 1.335 0.16688 2.3362-1.1681 4.0049-0.16687 1.6687 1.0012 4.6724-0.33375 7.0087 2.0025 2.3362 2.3362 3.0037 5.5068 6.508 2.5031s8.8442-12.682 8.8442-12.682 0.50062-12.349-0.50062-13.85c-1.0012-1.5019-10.179-1.5019-14.184-4.005-4.005-2.5031-8.0099-7.0086-9.178-7.6761s-13.517 1.5018-13.517 1.5018z" style="fill:none;stroke-width:1px;stroke:#000"/>
		<path id="path177" d="m805.66 774.79c-0.16687 2.5031 1.6687 10.847 1.6687 10.847s3.8381-2.1694 6.8418-1.5019c3.0037 0.66749 5.8406 1.5019 8.6774 1.335 2.8368-0.16687 5.6737 6.0074 3.5043-1.335-2.1693-7.3424-3.8381-8.3436-3.0037-9.3449 0.83437-1.0012 0.33375-2.8368 2.67-2.0025 2.3362 0.83436 8.0099 3.3374 9.5118 4.3387 1.5018 1.0012 3.6712 2.0025 3.8381 1.1681 0.16687-0.83437 1.0012-4.6724 1.0012-4.6724s1.335-3.3374 3.0037-0.50062c1.6687 2.8368 5.3399 10.012 7.3424 11.514s3.6712-1.0012 3.3375-2.67c-0.33375-1.6687-1.8356-6.508 1.6687-6.508 3.5043 0 8.1768 3.8381 8.1768 3.8381s2.1842 3.1642 3.2974 3.6507c1.1132 0.48653 8.3359 0.61646 10.651 0.92799 2.3154 0.31153 9.6938-0.71622 10.896-0.89122s5.7246-1.2503 5.9917-3.2349c0.26702-1.9846-0.1816-4.9074-0.47748-6.4626-0.29588-1.5552-0.34699-4.9296 0.31756-7.3658 0.66454-2.4362 1.8475-4.9711 1.4085-6.7139-0.43901-1.7428 6.904-10.016 6.904-10.016s-3.9409-5.7499-5.5376-7.6485c-1.5967-1.8986-4.8983-7.3941-4.8983-7.3941l-6.9653-3.2944s2.2101-3.912 3.5681-5.2447c1.358-1.3327 3.8417-3.5241 2.6967-5.0252-1.145-1.5011-2.2582-1.9876-4.9711-1.8475-2.7129 0.14011-9.6271 0.22007-12.715 0.64645-3.0882 0.42637-15.199 2.8379-19.391 3.9577-4.1917 1.1198-4.5447 1.2406-8.0749 2.4494-3.5302 1.2088-17.501 9.9367-18.837 11.104-1.3357 1.1673-8.7455 9.9362-11.518 14.278s-5.8732 14.869-6.2166 16.17-0.46069 7.1782-0.46069 7.1782l-4.4112 0.24836z" style="fill:none;stroke-width:1px;stroke:#000"/>
		<path id="path179" d="m952.56 735.61c-1.9834 2.3525-2.1407 3.5219-1.1601 5.0826 0.98061 1.5607 3.6614 2.8738 5.3887 5.9637 1.7274 3.0898 2.5055 4.3852 3.891 6.4765s4.0526 1.7359 4.0526 1.7359 1.5921-1.2145 2.4783 1.0478c0.88621 2.2623 3.4275 2.8424 3.4232 6.4136-4e-3 3.5712 1.1158 5.865-0.63365 8.249-1.7495 2.3839-2.5005 4.426-4.4932 1.5385s-0.83687-4.3988-2.2266-2.9189c-1.3897 1.4799-1.6729 3.5848-2.1271 5.1906-0.45417 1.6057-0.33256 4.2414-1.0206 5.8157-0.68805 1.5743-1.3761 3.1485-2.5005 4.426-1.1244 1.2774-3.5891 1.8983-2.8424 3.4275s4.5025 3.7014 5.4517 5.4959c0.94914 1.7946 2.1007 3.8544 2.5506 5.82 0.4499 1.9655-0.4091 3.0405-0.55284 5.8786-0.14375 2.8381-1.7988 4.5204-0.69659 8.7167 1.1022 4.1963 3.2659 7.583 3.2659 7.583s9.2568 5.5317 10.566 6.4221 10.988 5.0503 12.063 5.9093c1.075 0.859 2.15 1.718 4.7364 3.7328 2.5864 2.0148 6.2792 4.6548 7.3993 6.9486 1.1201 2.2938 5.933 7.2275 5.933 7.2275s10.162 18.274 15.136 18.467c4.9745 0.19308 14.127-11.196 14.986-12.271 0.8591-1.075 6.5123-7.6961 6.6246-10.3 0.1123-2.6042 3.7006-16.885 2.6119-19.413-1.0886-2.5277-1.8983-3.5891-4.8129-4.9337-2.9146-1.3446-4.534-3.4675-5.5818-0.98915s-2.5319 4.6598-2.5319 4.6598-3.6929-2.64-5.2671-3.328c-1.5743-0.68806-1.5607 0.98061-5.285-1.4254-3.7243-2.4061-5.8208-9.8318-6.8643-10.925-1.0436-1.0929-4.0526-1.7359-6.1397-3.9216s-2.1186-1.9519-2.7709-4.1828 0.6251-1.1065-3.396-3.0762c-4.0212-1.9698-6.6704-3.5168-4.4396-4.1692 2.2308-0.65232 5.7391-0.18028 5.7391-0.18028s0.3777-2.8066-0.3061-4.8036c-0.6838-1.997-1.4892-6.6296-2.8883-10.39-1.399-3.76-3.8144-5.2756-0.50428-8.6402 3.3102-3.3645 4.2185-6.576 7.4478-7.5702 3.2294-0.99421 4.3631 2.9682 7.7225-2.5327 3.3595-5.501 1.4212-1.7137 3.3638-9.0722 1.9425-7.3585 3.2693-8.3706 0.08-14.753-3.1893-6.3821-1.8804-5.4916-7.3772-12.422-5.4967-6.9307-6.8685-7.3534-14.569-10.294-7.7004-2.941-7.3857-5.2799-12.954-4.6004-5.5682 0.67953-6.4765 3.891-7.2275 5.933-0.75099 2.042 1.0393 4.6641-1.1601 5.0826-2.1994 0.41844-2.4783-1.0478-4.5382 0.10375-2.0599 1.1516-2.8874 1.9927-3.1707 4.0977-0.28322 2.105 0.88621 2.2623-1.0206 5.8157s-2.082 6.6254-3.4718 8.1052c-1.3897 1.4798-1.394 5.0511-4.5561 2.0063-3.1621-3.0448-5.825-6.2605-5.825-6.2605z" style="fill:none;stroke-width:1px;stroke:#000"/>
		<path id="path181" d="m1047.7 918.43c8.4785 4.2363 9.4634 2.2258 11.938 6.8448 2.4741 4.619 5.6405 4.0926 6.3693 7.5244 0.7289 3.4318 0.1667 4.0705 0.99 6.8006 0.8232 2.7301-0.1344 8.078 0.563 11.744s-0.1931 4.9745 2.0828 5.757c2.2759 0.78246 1.6865-1.9162 3.8817 1.2366 2.1951 3.1528 2.537 4.1513 4.687 5.8693 2.1501 1.718-0.2381 3.5398 4.255 2.0012 4.4932-1.5385 3.135-0.29256 5.5232-2.1143s-2.2266-2.9189 3.5125-3.0992c5.7392-0.18029 5.7034 3.6248 6.5037-0.55365 0.8004-4.1785 0.8905-1.3089 0.9577-5.3479 0.067-4.039 0.9084-3.2115 0.085-5.9416-0.8233-2.7301-5.114-0.92621 0.1931-4.9745 5.3071-4.0483 7.4393-0.42778 5.2935-5.717-2.1458-5.2892-1.7724-4.5246-2.8296-7.2862-1.0571-2.7616-0.7288-3.4318-2.7394-4.4166s-1.4799-1.3897-4.0841-1.502c-2.6042-0.11227-1.9519 2.1186-4.0075-0.30109-2.0557-2.4197-1.2911-2.793-2.1951-3.1528-0.9041-0.35976-3.8188-1.7044-5.7528-1.4884s-0.688 1.5743-3.4181 2.3975-6.9715 0.49071-7.9071 0.36483c-0.9355-0.12588-7.8262-2.0055-7.8262-2.0055l-4.0713-12.216s-3.2744-0.44057-4.3044 0.13521c-1.0299 0.57578-1.2638 0.54431-4.4481 2.9733-3.1842 2.429-3.2514 6.468-3.2514 6.468z" style="fill:none;stroke-width:1px;stroke:#000"/>
		<path id="path183" d="m867.22 985.51c5.5087 4.1087 10.954 6.1884 13.931 6.5889 2.9769 0.40054 20.113 0.68566 20.113 0.68566s24.877 0.31643 26.817 0.91422c1.9401 0.59779 5.3115 3.0719 13.536 4.5153 8.2246 1.4434 13.364 0.78787 15.196-0.31267s17.937-5.6686 17.937-5.6686 1.7428-0.43901 2.7412-5.356c0.99833-4.917-0.32473-5.095 0.16482-8.7334 0.48954-3.6384 1.8379-6.151 2.8554-8.7081 1.0176-2.5571 0.6423-2.2708-1.4505-4.2362-2.0928-1.9654-3.7274 0.17198-3.1044-4.4587 0.62306-4.6307 1.2654-6.9016-0.0577-7.0796-1.3231-0.17802-3.3076-0.44504-5.7312-2.4549s-0.59176-3.1104-4.1857-3.9307c-3.5939-0.82031-4.2999-0.57855-7.6076-1.0236-3.3076-0.44504-3.0214-0.0698-4.9362-3.3582-1.9148-3.2884-3.7406-7.2384-4.2241-8.6504-0.48351-1.4121-2.0423-7.3466-2.0423-7.3466s-0.21649-3.3966 0.22855-6.7043 1.4879-8.5554 1.4879-8.5554-0.25496-8.1164-1.133-11.602c-0.87802-3.4857-1.05-7.2131-1.05-7.2131s-3.1934-3.7972-6.6093-5.9406c-3.4159-2.1434-5.9032-6.1823-9.0774-7.6197-3.1741-1.4373-7.3406-3.0082-11.927-3.962-4.5862-0.95382-8.7081-2.8554-10.915-1.4686-2.2071 1.3868-7.2636 6.4312-8.7202 7.2455-1.4566 0.81428-6.5131 5.8587-6.5131 5.8587s-2.2516 1.7176-5.6038 1.6033c-3.3522-0.11427-5.801 0.56649-9.923-1.3351-4.1219-1.9016-3.3714-2.4741-9.4779-4.6428-6.1065-2.1686-12.532-14.483-12.532-14.483s-9.1977 0.78298-10.896 0.89122c-1.6983 0.10825-1.3676 0.15275-2.8049 3.3269-1.4373 3.1741-5.4126 7.6906-8.7647 7.5763-3.3522-0.11428-9.2867 1.4445-9.2867 1.4445l-3.4219 2.9071 2.1566 3.9944 3.1115 16.92s-2.2516 1.7176-3.7972 3.1934c-1.5456 1.4758-1.5456 1.4758-1.8126 3.4604-0.26702 1.9846 5.3115 3.0719 6.7428 4.9483 1.4313 1.8763 1.317 5.2285 2.5258 8.7587 1.2088 3.5302 6.5395 8.962 6.4697 11.983-0.0698 3.0214-0.16481 8.7334-0.56535 11.71-0.40053 2.9769 4.4082 2.2769 5.8395 4.1532 1.4313 1.8763 15.808 22.669 15.808 22.669z" style="fill:none;stroke-width:1px;stroke:#000"/>
		<path id="path189" d="m653.58 1146.7c6.4818 1.8823 2.2901 3.0021 11.246 1.5131 8.9559-1.489 14.337-1.4385 19.368-3.7923 5.0312-2.3538 3.7972-3.1934 7.8806-6.0115s2.7159-2.6653 6.7103-4.8219c3.9944-2.1566-2.4236-2.0098 7.1493-3.0791 9.573-1.0692 10.502-2.9648 13.898-3.1813 3.3966-0.2165 2.5824-1.673 8.7779-0.1659s6.1955 1.5071 9.1279 2.2384 2.5571 1.0175 7.4994-0.6748c4.9422-1.6923 4.9422-1.6923 8.6696-1.8642 3.7274-0.172 4.7582 4.6812 6.6406-1.8006s0.97909-7.2768 2.4802-8.4218c1.5011-1.1451 6.4878-3.1682 6.6466-6.8511s1.4818-3.5049-0.52198-6.1318c-2.0038-2.6268-1.9148-3.2884-4.2747-3.2691-2.3598 0.019-2.0291 0.064-5.6675-0.4258-3.6384-0.4896-1.1703 1.1895-4.6307-0.6231s-5.2922-0.7121-4.9362-3.3582c0.35603-2.6461-0.87802-3.4856 0.57855-4.2999s2.5379-1.3423 2.5379-1.3423-0.0192-2.3599-2.2456-3.3329c-2.2263-0.9731-0.19725-1.0368-2.8434-1.3929-2.6461-0.356-2.6016-0.6868-5.9983-0.4703-3.3966 0.2165-1.8763 1.4313-5.3367-0.3813-3.4604-1.8126-5.706-5.1455-5.706-5.1455l-0.76978-1.7873s-0.90328-0.7951-2.2263-0.9731-0.94779-0.4643-2.9769-0.4005c-2.0291 0.064-0.28626-0.3753-4.389 0.083s-6.3735-0.184-9.4839 0.4078c-3.1104 0.5917-5.0758 2.6845-7.7026 4.6884-2.6269 2.0038-7.1746 5.7697-7.1746 5.7697s-0.089 0.6615-3.0022 2.2901c-2.9131 1.6285-4.9422 1.6923-6.157 3.2126s-5.0373 7.4043-7.6197 9.0773c-2.5824 1.6731-3.8417 3.5242-6.5768 3.8297s-2.0736 0.3945-4.7642 0.3692c-2.6906-0.025-2.3154-0.3115-4.6752-0.2923-2.3599 0.019-2.2516 1.7176-2.5186 3.7022-0.26702 1.9846 1.0368-0.1973-0.57855 4.2999-1.6154 4.4972-3.7142 7.5823-4.0258 9.8977-0.31153 2.3153-1.4241 10.584-2.0219 12.524-0.59779 1.9401-0.38734 10.387-0.38734 10.387z" style="fill:none;stroke-width:1px;stroke:#000"/>
		<path id="path191" d="m714.09 1029.9c6.9713-1.7561 3.5109-3.5687 12.531-3.0286s6.7812 9.668 12.13-0.052c5.3488-9.7197 5.4823-10.712 4.9988-12.124-0.48351-1.412-0.24176-0.706-1.0308-4.8532-0.789-4.1472-2.1373-1.6346-1.0945-6.8823 1.0428-5.2478 1.2654-6.9016 3.8922-8.9054 2.6269-2.0038 3.1296 1.7681 4.0642-5.178s1.0236-7.6076 2.2697-16.869c1.2461-9.2614-1.317-5.2285 0.25986-14.445s2.8686-1.2978 0.98512-12.327c-1.8835-11.03-5.3054-8.1224-3.9066-16.016 1.3989-7.8938 1.5011-1.145 2.8362-11.068 1.3351-9.9229 0.64832-7.3213 0.0181-15.151-0.63023-7.8301 3.4472-5.5977-0.69397-9.8592s-1.584-3.2439-5.8587-6.5131c-4.2747-3.2692-4.8027-4.3505-8.2631-6.1631-3.4604-1.8126-0.65549-5.1395-7.6268-3.3834-6.9713 1.756-4.4972-1.6154-9.0449 2.1505-4.5477 3.7659-4.8785 3.7214-7.9696 6.673s-4.389 0.083-5.279 6.6983c-0.89008 6.6153-4.3444-0.24779-1.7994 10.871 2.545 11.119 2.9456 8.1416 3.2258 13.567 0.28023 5.4258 0.92969 15.616 0.37641 17.225-0.55329 1.6093-1.0873 5.5785-2.2384 9.1279-1.1511 3.5494-4.751 7.7796-1.4241 10.584 3.3269 2.8049 7.0928 7.3526 7.0928 7.3526s2.7796-0.63626 3.8104 4.217c1.0308 4.8532 0.89725 5.8455-1.2906 9.5922-2.1879 3.7467-3.5807 6.59-4.223 8.8609-0.6423 2.2708-2.6967 5.0252-4.0005 7.207-1.3038 2.1818-2.7159 2.6654-3.4027 5.267-0.6868 2.6016-0.7181 10.343-0.45711 13.409 0.26099 3.0659 7.0038 8.0142 7.3093 10.749 0.30549 2.7352 3.8044 9.2675 3.8044 9.2675z" style="fill:none;stroke-width:1px;stroke:#000"/>
		<path id="path193" d="m164.78 897.73c2.0857-10.495 0.19008-11.424 5.5328-16.093 5.3428-4.6692 18.725-19.033 27.197-21.934 8.4724-2.9011 23.827-6.8967 36.93-9.1747 13.103-2.278 21.843-7.1637 33.928-6.8846s27.835-1.6429 32.249-4.4165c4.4142-2.7736 47.248-5.766 56.649-10.563s8.2559-6.2977 14.922-10.789c6.6658-4.4912 26.281-30.139 30.173-39.045 3.8922-8.9054 5.4944-20.813 7.491-30.647 1.9966-9.8339 11.816-32.759 12.528-38.051 0.71206-5.2922-0.99344-17.645-3.2835-20.647-2.2901-3.0022-1.489-8.9559-9.1988-16.728-7.7098-7.7724-21.907-12.377-27.811-18.559-5.9032-6.1823-7.7483-12.492-13.919-16.69-6.1702-4.1977-10.178-9.4515-24.07-11.321-13.892-1.8692-38.33-0.44276-38.33-0.44276s-25.367 3.322-30.086 3.3605c-4.7197 0.0385-23.701 6.7675-23.998 7.2038-0.29682 0.4363-24.403 23.862-24.403 23.862l-46.418 13.161-42.176 32.067s-6.1886 4.406-6.5101 5.9105c-0.32149 1.5045-1.9043 7.9589-1.7265 9.2925 0.17775 1.3336 7.4218 7.666 7.7076 9.9666 0.28576 2.3006 3.7026 14.071 4.528 15.016 0.82541 0.94448 7.3925 6.1142 7.8266 8.1967s-6.2665 17.373-6.2665 17.373-4.8687 2.5596-6.1729 4.289c-1.3042 1.7295 1.024 10.972 0.90488 12.742-0.11907 1.7699-2.489 7.8803-3.7146 9.025s-4.9384 2.193-4.0207 4.2214c0.91768 2.0284 1.678 5.2263 3.1128 5.1812 1.4348-0.0451 5.8178-0.765 7.3538-0.67739 1.536 0.0876 3.9625-1.1337 3.2497 1.5088-0.71273 2.6425-2.0212 7.9432-2.4125 9.0812-0.39123 1.138 1.0729 2.6446 0.3151 3.8523-0.7578 1.2077-2.116 2.4537-2.2419 3.3892-0.12588 0.93554-0.43377 4.1087 0.088 4.6552 0.52178 0.54645 9.9452 10.149 10.146 12.2s-0.19308 4.9746-0.19308 4.9746-4.2346 0.50177-5.6851 0.66379c-1.4505 0.16201-0.58685 1.7069-0.4631 2.557 0.12374 0.85007 0.43884 4.7024 0.41417 5.7706-0.0247 1.0682 1.1966 3.4947 1.1966 3.4947s9.961 10.032 11.441 11.421c1.4798 1.3897 4.0955 4.9563 4.6713 5.9862 0.57578 1.03 2.4111 5.0868 2.7058 6.4361 0.29469 1.3493-0.27602 9.1305-1.1036 9.9716-0.82753 0.84114-1.7495 2.3839-1.8282 2.9686-0.0787 0.58471 0.43204 3.868 0.58725 4.4842 0.15521 0.61618 1.3068 2.6761 1.3068 2.6761z" style="fill:none;image-rendering:auto;stroke-width:1px;stroke:#000"/>
		<path id="path308" d="m647.57 860.99c1.3423 2.5379-16.163-2.5115-19.337-3.9488-3.1741-1.4373-14.77-5.3548-20.985-9.2218-6.2148-3.867-15.432-5.4438-19.598-7.0147s-16.049-5.8636-25.972-7.1987c-9.9229-1.3351-28.179-5.812-38.28-5.824-10.101-0.0121-37.738 2.6676-43.718 4.5572-5.979 1.8896-42.515 13.138-47.323 13.838-4.8087 0.7-31.492-1.2065-35.703-2.4466-4.2109-1.2401-16.126-15.303-15.592-19.272s22.107-44.171 22.33-45.825c0.22252-1.6538 6.2702-24.076 6.5372-26.061 0.26702-1.9846 11.574-33.465 11.574-33.465l0.0109-27.612s-4.5741-11.055-5.9609-13.262-9.5164-9.3625-9.5164-9.3625l-20.96-11.912s-7.8241-4.4202-7.2455-8.7202c0.57856-4.3 2.4417-13.142 7.2312-16.201 4.7895-3.0598 26.34-5.5483 31.632-4.8363 5.2922 0.71206 22.358 4.0186 25.202 5.4114 2.8434 1.3928 33.904 13.317 37.034 15.085 3.1296 1.7681 21.716 6.2894 26.678 6.957 4.9615 0.66756 34.576-14.206 34.576-14.206s19.095 3.2428 22.448 3.357c3.3522 0.11428 10.521-0.60496 10.521-0.60496s8.7021 7.9059 9.0521 10.31c0.35 2.4044 7.4175 12.448 8.2318 13.904 0.81428 1.4566 2.2648 5.6928 0.19122 6.0873-2.0736 0.39451-6.9268 1.4253-8.9559 1.489-2.0291 0.0637-3.5049-1.4818-4.3252 2.1121s-2.3274 9.7894-2.3274 9.7894l6.8065 6.9774 7.7796 4.751 4.7582 4.6812 9.734 30.27s6.2857 18.357 5.9296 21.003c-0.35603 2.6461 0.38906 20.716 0.38906 20.716l16.692 7.5122s15.737 8.179 17.588 9.4383c1.8511 1.2593 24.407 6.3147 26.678 6.957 2.2708 0.6423 5.586 1.1631 12.531-3.0286l6.9446-4.1917s-5.5638 11.449-6.2506 14.051c-0.68679 2.6016-0.7181 10.343 0.0517 12.13 0.76977 1.7873 5.7697 7.1746 6.2087 8.9174 0.43901 1.7428-0.29229 4.6752-0.29229 4.6752s-15.946 0.88519-17.823 2.3165c-1.8763 1.4313-4.834 3.3906-5.1455 5.706-0.31153 2.3154 1.6033 5.6038 1.6033 5.6038s-3.2884 1.9148-6.9713 1.756-9.1279-2.2384-11.004-0.80711c-1.8763 1.4313-1.8379 6.151-2.1049 8.1356-0.26703 1.9846-1.5516 6.5263-1.5516 6.5263z" style="fill:none;stroke-width:1px;stroke:#000"/>
		<path id="path310" d="m361.78 425.86 24.695-10.011s5.6626-1.3812 8.937-0.94061c3.2744 0.44057 11.38 3.9123 12.689 4.8028 1.3089 0.89047 7.9028 3.2064 9.3061 3.3952 1.4033 0.18882 5.8378-4.4532 8.4735-4.5748 2.6357-0.12161 14.006-1.4492 16.579-1.103 2.5728 0.34616 11.802 2.5405 12.643 3.368 0.84114 0.82753 8.1818 4.6726 9.864 6.3277s29.978 15.423 29.978 15.423l30.705 18.356s12.465 38.45 13.023 41.382c0.55792 2.9325 8.0839 21.328 8.0839 21.328l6.428 10.628 2.3855 26.514-14.994 19.413s-8.3426 12.45-9.7229 19.17c-1.3804 6.7198-5.7741 16.368-3.8622 21.626s3.8504 16.624 8.5244 18.053l4.6741 1.43-32.951 14.053s-9.7603-1.7895-12.535-2.401c-2.7752-0.61152-11.645-3.7099-16.494-4.8385-4.8487-1.1286-34.931-14.701-34.931-14.701s-16.089-4.3078-17.024-4.4337c-0.93555-0.12588-16.7-1.5327-17.667-1.4246-0.96702 0.10801-16.502 2.3039-16.502 2.3039l-9.8453 4.1521s-4.0203 10.413-4.6454 11.519-4.3945-2.7344-7.1203-5.4823c-2.7258-2.748-8.8026-7.1374-11.016-8.3876-2.213-1.2502-9.3061-3.3952-14.357-4.7892-5.0511-1.394-21.675-1.7257-25.215-1.9639-3.5398-0.23815-28.48 2.8354-28.48 2.8354l-17.375 1.7103-21.139 6.6806 14.257-15.703s5.5087-16.165 7.339-20.92c1.8303-4.7543 7.5908-22.791 10.793-27.122s29.719-35.053 29.719-35.053l61.736-74.797 6.0973-25.849z" style="fill:none;stroke-width:1px;stroke:#000"/>
		<path id="path312" d="m556.02 1127.3c-12.634 1.8719-15.459 3.3968-16.052 4.2694-0.59364 0.8726-36.998 5.9754-45.279 5.5757-8.2804-0.3998-70.408-2.3298-75.567-4.6908-5.1591-2.361-9.8912-9.6651-12.324-9.2781s-3.9803 3.0363-6.5846 2.924c-2.6042-0.1123-6.9987-2.8466-8.7439-4.0339s-13.013-7.7039-17.177-6.8355c-4.1649 0.8683-8.1495 7.4758-10.88 8.2991-2.7301 0.8232-6.1754-0.1166-6.1754-0.1166s-65.672 1.4031-73.062-0.3056c-7.39-1.7087-5.1727-4.0296-5.1727-4.0296s-16.557-4.3708-20.519-3.2371-13.066-1.9962-15.077-2.981c-2.0106-0.9849-10.377-7.8255-11.623-9.1837-1.246-1.3583-5.5146-5.0282-7.3857-5.2799-1.8711-0.2518-7.9564 2.5012-10.624 2.8567s-7.9836-0.836-10.961-1.7129-11.429-1.7759-13.3-2.0276c-1.8711-0.2518-6.5445-4.4524-10.957-5.2842-4.4124-0.8318-14.487-0.2824-18.4-1.2852-3.9131-1.0027-11.114-4.1147-15.652-4.011-4.5382 0.1038-15.58 0.7612-16.561-0.7995-0.98061-1.5606-1.5836-5.9279-1.2238-6.832 0.35976-0.9041 5.6941-1.6151 6.2112-3.6886 0.5171-2.0735 0.45843-5.177 0.64725-6.5803 0.18881-1.4033-0.16242-7.6417 0.99341-9.153s7.4257-2.0964 7.583-3.2659c0.15734-1.1694-0.47711-5.3028-0.58512-6.2698s-8.4335-2.8016-2.645-5.1183 20.558-16.522 20.558-16.522 1.3625-4.8172 2.6442-7.2641c1.2817-2.4469 7.3483-15.68 7.3483-15.68s3.6291-9.2746 3.3501-10.741c-0.27896-1.4662-0.94062-8.937-0.0187-10.48 0.92194-1.5428 0.27308-19.727 0.27308-19.727s2.4511-2.2895 3.1392-3.8638c0.68806-1.5743-1.206-8.7346-1.206-8.7346s-5.5775-4.5604-1.957-6.6926c3.6206-2.1322 7.1646-5.4652 7.1646-5.4652l0.42696-4.9431-3.2565-2.3431s-1.7274-3.0899-2.0828-5.757c-0.3555-2.6672-3.5134-9.2832-3.5134-9.2832l-0.79261-15.346-7.0953-0.35936 3.7478-17.236s9.5706-9.1896 10.96-10.669c1.3897-1.4799 19.308-14.309 19.308-14.309s24.288-5.3044 27.189-5.6285c2.901-0.32403 32.105-8.5388 32.105-8.5388s23.595-0.15896 28.354-1.8999c4.7585-1.741 18.548-5.1242 18.548-5.1242l30.103-4.2838s22.196-3.919 23.195-4.2609c0.99848-0.3419 15.921-12.145 15.921-12.145l19.942-22.558 1.354 2.3253s-12.3 22.395-13.208 25.607c-0.90834 3.2115 6.9723 11.892 6.5182 13.497-0.45417 1.6057 7.6782 8.4148 13.058 9.1386s24.949 2.1663 24.949 2.1663l27.252-6.0962 16.412-5.1735s24.301-3.6358 28.56-5.2058c4.2593-1.57 29.681-2.912 29.681-2.912s19.458 4.0467 25.336 4.5996c5.8786 0.55285 21.468 5.0316 27.284 6.0522 5.8157 1.0206 17.6 5.4636 22.152 7.0286 4.5518 1.5649 16.458 8.6436 21.977 10.101 5.5189 1.4569 18.27 5.7919 18.27 5.7919l4.7051-1.3046s5.7075 5.3249 7.309 9.3503 3.464 11.42 3.2437 13.057 1.0444 13.475 1.3233 14.942c0.27896 1.4663 2.5192 6.0538 2.5192 6.0538s-2.1092 3.288-2.4869 6.0946c-0.37763 2.8066 0.86407 7.7361 0.90914 9.1709 0.0451 1.4348 5.1506 9.5034 5.1506 9.5034s3.0634 7.3177 3.3739 8.55c0.31042 1.2324-1.8932 5.222-3.4718 8.1052-1.5785 2.8832-1.65 10.493-1.8252 13.565-0.17521 3.072 1.1252 11.105 1.1252 11.105s5.3122 4.7628 4.8716 8.0372c-0.44056 3.2744 1.098 7.7676 1.422 10.669s1.6108 9.2653 1.251 10.169c-0.35976 0.90412-1.7495 2.3839-2.1722 3.7558-0.4227 1.3718 0.14882 5.973 0.14882 5.973l-1.1108 2.9461-4.5196 10.584-0.19735 8.5458s-2.6357 0.1216-3.868 0.432c-1.2324 0.3105-9.5306 1.8133-11.325 2.7624-1.7946 0.9492-2.5141 2.7573-4.5604 5.5775-2.0463 2.8203-2.8781 7.2326-3.8766 7.5745s-5.2892 2.1458-6.9894 2.3933-7.3763-0.04-10.03 1.9842c-2.6536 2.0241-9.364 5.8837-9.3818 7.7862-0.0179 1.9026-0.25601 5.4423 1.3812 5.6626s5.8336-0.8819 5.8336-0.8819l1.3854 2.0914s-2.4962 0.8547-3.5891 1.8982c-1.0929 1.0436-3.1528 2.1952-2.8738 3.6614 0.27896 1.4663 1.1022 4.1964 3.1128 5.1812 2.0106 0.9849 0.0272 3.3374-0.3955 4.7092-0.4227 1.3719-4.9788 3.3782-4.9788 3.3782s-1.4212 1.7137-3.3552 1.9297c-1.934 0.2161-4.5204-1.7988-7.2505-0.9755s-16.273 5.9066-20.235 7.0403c-3.9625 1.1337-8.613 3.8417-10.408 4.7908-1.7946 0.9492-6.2698 0.5851-8.0151-0.6022-1.7452-1.1873-5.5189-1.4569-5.5189-1.4569l-1.5335 4.318-6.5982 1.2553-3.9488 2.8024s-2.5949 5.1276-1.7087 7.3899c0.88621 2.2623 4.4353 7.7404 5.6498 9.3325s6.963 6.6517 6.963 6.6517z" style="fill:none;stroke-width:1px;stroke:#000"/>
	</g>
</svg>
