<?xml version="1.0" encoding="UTF-8"?>
<svg version="1.1" viewBox="0 0 3840 2160" xmlns="http://www.w3.org/2000/svg" xmlns:xlink="http://www.w3.org/1999/xlink">
 <path id="b" d="m176.95 346.73c-0.47199-2.8319-2.6246-12.451-2.6246-12.451 0.275-6.4234 4.3694-7.9857 8.5918-9.3852 3.407-5.4129 4.7889-10.514 3.4335-15.194l3.8355-12.054c-0.69002-13.364-0.26318-26.497-4.2842-39.528l8.6877-1.7323 0.35785-20.194 6.1903-5.389-6.1903-11.8c3.3731-3.2788 13.128-7.6376 12.505-12.248l-1.5068-2.7229c10.551-9.0359 14.023-11.962 24.924-18.55l31.39-13.133 34.359-2.0799c12.792 1.275 19.371 7.8202 30.197 12.373l12.941 13.664 6.8594 8.2805c1.4733 6.5563 6.5401 10.903 13.825 14.554l6.2733 1.2785c2.2087 2.9892 2.598 8.7437 7.0383 10.617 3.8445 2.1358 7.3459 5.3013 11.859 5.4304l-2.8319 9.9117-15.576 4.7199-18.879 4.2479s-10.856 12.744-11.8 14.632c-0.94398 1.888-3.0522 15.394-6.1358 19.351-3.3494 4.299-10.647 8.565-13.669 10.324-3.509 2.0425-17.01 24.131-17.01 27.435 0 3.3039 7.0798 17.464 8.0238 20.767 0.94397 3.3039 9.4397 26.431 9.4397 29.263s-9.3386 26.647-10.755 30.422c-1.416 3.7759-4.0475 8.974-4.0475 8.974-4.0853-3.9198-9.363-9.2311-16.954-7.9574-4.8062 0.0769-2.6333 0.32553-6.6125-0.3749-1.4263-4.1051-16.27-8.7372-19.14-8.8551l-9.411-0.38681s0.4146-6.758-0.62599-8.4024c-1.1325-1.7897-7.7964-7.4548-8.3899-8.1782-1.8624-2.2701-9.0769-7.8564-14.582-5.8767-4.804-1.4517-10.081 2.0693-12.311 2.1136-2.3595 0.0468-23.688-0.76788-23.688-0.76788l-2.0487-4.7432 6.3644-2.1176c9.8298-12.02-13.631-16.244-14.046-16.238l-16.82 5.5706-2.7411-7.5415s7.3309-5.9551 3.732-6.6884c-1.8499-0.37692 11.852 0.65879 11.852 0.65879z" style="fill:none;stroke-width:1px;stroke:#000">
  <title>Moonrich</title>
 </path>
 <path id="c" d="m405.5 256.65-8.6774-9.3449-11.21-10.84-2.8319 9.9117-15.576 4.7199-18.879 4.2479-12.579 14.989-3.0037 16.687-5.3399 5.6737-10.484 7.1461c0.53976-3.3182-11.605 13.151-15.686 24.03-2.0696 2.5391-1.5664 5.3845 0.0198 7.558l16.942 45.036-6.8124 19.691-9.0111 20.358 20.025 13.35 39.382-4.005 9.6786-16.02s10.745-16.976 13.016-20.358c2.2872-3.406 7.525-21.03 11.681-22.361 3.1412-1.0058 44.108-12.457 44.722-13.016 1.233-1.1244 19.357-23.362 19.357-23.362l10.346-19.023s3.377-13.35 1.7082-13.684c-1.6687-0.33375-10.719 1.6691-13.389 4.1e-4 -2.67-1.6687-9.3449-4.3387-10.68-5.6737s-2.3362-6.3412-2.3362-6.3412l-7.0087-4.005-2.67-10.68-6.0074-3.0037-14.017-5.6737z" style="fill:none;stroke-width:1px;stroke:#000">
  <title>Toussaint</title>
 </path>
 <path id="d" d="m494.94 442.55s-17.021-7.0086-20.025-9.3449-20.025-13.684-24.03-14.685c-4.005-1.0012-17.021-2.67-21.026-1.6687-4.005 1.0012-11.681 5.6737-14.017 5.6737-2.3362 0-11.014-5.0062-16.02-6.3412-5.0062-1.335-11.681-1.6687-13.016-1.0012-1.335 0.66749-25.031 10.68-25.031 10.68l22.027-34.71c0.0925 0.0264 8.1854-22.345 10.68-23.362 5.0865-2.0747 44.849-12.146 46.587-14.057 2.9627-3.2588 19.195-23.366 19.161-22.989l10.346-19.023 2.5716-12.054s4.5548 1.8066 5.8897 3.1416 9.1288 8.4025 9.1288 8.4025 2.2075 3.554 5.6737 2.3362c1.2595-0.44252 10.503-0.0589 10.503-0.0589s5.4185 4.6922 8.4222 4.3584c3.0037-0.33375 5.9683-1.1189 8.972 0.88354 3.0037 2.0025 7.9309 6.3412 7.9309 6.3412s17.414 0.94239 19.751 1.2761c2.3362 0.33375 3.6704 2.0811 6.0066 3.0823 2.3362 1.0012 12.604-1.0408 15.608-0.0395 3.0037 1.0012 12.505 2.0416 12.505 2.0416-0.5602 1.4005 11.302 4.1395 15.51 0.29464 1.9711-1.801 16.706-0.76624 16.706-0.76624l15.644 4.7901s29.628 6.4593 31.964 7.4605c2.3362 1.0012 16.923 5.3597 16.923 5.3597s12.467 0.4321 14.47 0.76584c2.0025 0.33375 11.779 6.1054 11.779 6.1054s8.5202 6.1453 9.8552 7.1465c1.335 1.0012 17.316 5.007 18.651 5.3407 1.335 0.33374 3.2963 7.814 4.6313 8.8152s10.327 2.1194 10.327 2.1194 4.3185-0.5893 5.6535-0.25556c1.335 0.33375 9.5609-2.2395 11.563-1.572 2.0025 0.66749 21.44 7.9716 21.44 7.9716l11.858 2.0617 9.6202 9.6988-0.47161 10.404c0 1.7631 6.8374 8.1454 9.3844 8.8152 1.8322 0.48188-9.2316 1.644-2.3757 5.5358 0 0-0.60864 8.4613-1.9436 9.7963s-3.2782 2.4539-3.2782 2.4539-4.0463-9.7434-5.4185-11.347c-1.6744-1.9572-4.8634 2.1133-4.8691 2.1597l-0.51029 6.2823 3.6518 14.705-5.9881-0.0197c-1.9957-2.5042-4.8194-4.8704-9.0111-7.0086 0 0-17.726 4.508-16.903 6.1058 2.102 4.081-10.004 5.4572-10.13 6.2428l-2.67 9.0111c-0.76486 0 2.8467 5.9877 7.2444 6.9889 3.0872 0.70285 9.7766 4.3584 9.7766 4.3584-2.5383 1.058-4.1416-0.37737-7.6761 3.3375l-8.9918-1.551c-0.38227-0.66897-9.2306 4.5211-11.76 4.7115-1.0137 0.0763-5.4537 2.0533-6.5766 5.3597-0.75887 2.2346-1.6095 7.2836-0.94197 9.6198 0.66749 2.3362 8.9523 8.6971 8.9523 8.6971l-8.3831 5.2025s-3.3374 3.3375-7.3424 4.3387c-4.0049 1.0012-11.347 1.335-21.026 0.66749-9.6786-0.66749-50.729-3.3374-61.075-4.6724-10.346-1.335-76.599-24.874-83.147-26.567-8.9241-2.3075-13.566-7.5012-19.548-8.4959-6.3241-1.0516-55.767-27.882-54.165-29.35z" style="fill:none;stroke-width:1px;stroke:#000">
  <title>Boussreau</title>
 </path>
 <path id="e" d="m265.02 416.53 14.16 0.23599s4.9559 7.0798 5.8998 7.5518c0.94398 0.47199 10.148 3.0679 10.148 3.0679 4.6951-2.0041 6.0514-6.3453 7.1453-10.87l20.025 13.35 39.382-4.005s18.406 9.3131 19.35 10.493c0.94397 1.18-5.4278 24.779-6.6078 25.959s-20.767 23.363-26.667 30.443-64.19 80.71-65.842 83.07c-1.652 2.3599-16.048 42.715-18.172 46.255-2.124 3.5399-30.207 35.635-36.815 37.759-6.6078 2.124-40.827 11.8-44.603 12.744-3.7759 0.94397-27.528 20.226-28.944 21.406-1.416 1.18-14.715 10.925-15.659 11.161-0.94398 0.23599-8.2598-4.9559-8.2598-4.9559s-0.94397-48.851-1.18-51.211c-0.23599-2.3599-1.18-6.1358-1.18-6.1358s3.0679-0.94397 3.5399-1.888c0.47199-0.94397 1.416-11.328 2.3599-12.272 0.94397-0.94398 8.7318-10.62 10.856-12.744s4.2479-9.6757 5.1919-10.148c0.94398-0.47199 2.3367-1.0326 2.9291 1.2149 0.59193 2.2457 11.804 1.4744 14.298-0.27092 1.826-1.2778 8.8012-0.94602 7.9199-5.0048-0.99611-4.5877 4.2493-3.6534 4.2493-3.6534 2.6545-5.1193-1.0834-6.0643 1.7544-8.0974 1.5141 0.68775 3.2422 2.9109 4.2479 2.0734 1.594 2.1902 1.2848-3.8798 1.888-5.6133-1.652-1.7306 1.2777-5.3356-4.9559-5.1919l3.3039-4.9559s2.7369-2.4474 1.9359-4.5824c-0.26965-0.71881-0.23796-3.3245-4.1493-1.0996 0 0-1.3541 0.33343-0.14653-1.3978 10.069-14.434 6.1358-9.6757 6.1358-9.6757l1.18-32.803-4.4839-12.98-6.1358-10.62-0.70798-12.98 3.7759 4.2479c1.9054-0.35877 4.0836 2.2829 5.6638-1.652 2.0402-0.55394 3.1861-1.6866 2.124-4.2479 0 0 5.8998-4.0119 9.6757-4.0119 3.7759 0 8.0238-1.888 10.148-1.888s10.148-0.70798 12.508-1.888 7.5518-4.9559 7.5518-4.9559c2.1124 0.86981 6.4862-3.4541 7.5998-5.0635 2.3193-3.3518 1.7345-20.547-5.7936-19.606 1.6036-1.8016 3.2776-3.6168 0.23737-4.5254l-7.7191-0.54979s-1.9203-3.5697-2.8643-3.5697c-0.94398 0-9.9597 0.93689-11.992 0.2749-2.5765-0.83942-8.5306-4.0584-9.6757-3.5399-1.1577 0.52421-10.148 4.4839-11.564 5.4278-1.416 0.94398-7.0798 3.0679-8.9678 3.0679h-13.924l0.33197-7.9318 2.1018 1.0283 12.482-0.43565c1.8438-0.94397 0.53526-4.4995 0.16727-5.4434-3.605-1.9179-11.325-2.9968-13.456-3.7733-3.2333-1.1786-12.777-10.626-13.708-12.296-0.73623-1.3196 2.902-1.128 3.374-3.252 0.47198-2.1239 0.45502-7.4104 0.45502-7.4104s9.904-5.0882 11.792-4.1442 4.597 5.3758 4.2479 6.3718c-0.76431 2.1803 4.6516 2.1922 6.6078 2.1239 1.4916-0.0521 4.4839 0.47199 7.0798 0.47199h10.62c1.652 0 3.0679 1.18 4.4839 2.1239 1.416 0.94397 3.0679 2.5959 7.0798 3.0679 4.0119 0.47198 4.2686-1.2578 7.5725-1.4938 3.3039-0.23599 3.3246 1.7479 4.5046 2.6919s16.006 0.21783 18.13 0.68982c2.1239 0.47198 8.7318 0.23599 9.6757 0.23599h9.4398c3.0638 0 9.5393-3.7759 6.8438-3.7759z" style="fill:none;stroke-width:1px;stroke:#000">
  <title>Darksend</title>
 </path>
 <path id="f" d="m525.65 460.9s10.68 29.036 11.347 35.377c0.66749 6.3412 10.346 29.703 13.684 33.708 3.3374 4.0049 6.3412 26.032 4.3387 29.703-2.0025 3.6712-18.022 23.696-20.358 28.702s-8.682 24.49-8.1244 29.935c0.84296 8.2327 4.3558 19.233 8.8442 20.821 3.5596 1.2596 20.64 4.646 26.981 4.3122 6.3412-0.33374 10.68-3.3374 14.017 2.3362 3.3375 5.6737 14.462 20.542 15.797 24.88 1.335 4.3387-11.75 4.2944-13.085 3.9606-1.335-0.33374-3.4702 8.4518-3.804 11.122-0.33375 2.67 6.2723 8.425 8.7676 9.4317 4.0904 1.6502 9.0014 6.1737 9.7289 7.6733 1.0301 2.1232 15.218 48.063 15.885 49.732 0.66749 1.6687 0.75184 22.694 0.75184 22.694s12.3 5.3659 17.716 7.987c5.7632 2.7892 41.691 13.706 44.695 13.706s20.361-6.1698 20.361-6.1698c-0.44129-1.0302-6.1803-5.3073-2.1702-9.882 1.0644-1.2142-1.9956-5.9763-1.7047-9.5231-1.9508-3.2596 7.6032-6.1872 9.0156-6.5379 2.3174-0.57546 9.439-3.5491 5.588-11.722 0 0 2.8675-6.4153 4.87-6.4153 2.0025 0 12.381-0.70275 13.96-1.5604 1.1519-0.62547-1.9581-11.905 3.3904-13.675 1.2674-0.41939 5.5886-0.98981 5.5886-0.98981s7-6.7495 6.3325-9.7532-4.3236-12.623-4.3236-12.623c-1.4018-1.0765 4.1763-4.0214 7.214-3.3813 1.4605 0.30772 1.3228-4.6232 3.5386-5.6202 5.8232-2.6201 9.5838 0.73854 11.033 3.5497 1.5295 2.9663 5.7283 5.7638 9.5898 6.3542 6.4976 0.99354 3.3748 6.0205 3.3748 6.0205 10.172-2.1019 19.086 1.8754 18.102 5.2476-0.41818 1.4328 13.685 0.73104 16.021 0.39729 2.3362-0.33374 9.9572-2.7907 9.9572-2.7907s-0.25227-14.55 4.8571-10.977c5.392 3.7708 6.272-0.82501 8.6543-1.2328 2.3027-0.39419 7.2859 0.16721 12.96-0.16653 5.6737-0.33375 7.8868-1.7453 10.891-2.4128s7.7265-2.691 10.73-4.0259c3.0037-1.335 4.5087-6.2362 10.182-6.2362s12.976-0.48589 12.7-1.834c-0.22117-1.0806 0.38637-5.9296 1.0751-9.3436 0.63449-3.1449 0.71348-3.5305 4.8256-5.5554 6.0728-2.9904 11.448-3.8861 17.415-3.1073 5.626 0.73423 15.194-1.2872 17.854-2.9717 8.1232-5.1443 8.1784-2.9483 8.1232-5.1443-0.0372-1.4785-6.3304-6.1258 0.39659-7.4564 6.2977-1.2457 16.766-6.7792 18.045-3.7635 2.0851 4.916 7.3321-3.0531 7.3321-3.0531l2.4299-1.3269c3.5272-1.9261-0.16405-2.609 0.46132-5.7128 1.3207-6.5551 6.9424 0.14924 8.6284-3.465 1.7048-3.6546 4.1976-10.665 3.0527-11.622-1.3953-1.167-3.3151-5.2404-3.8379-8.6091-0.25698-1.656-9.8828-0.10742-6.3416-7.7058 2.7752-5.9546-0.98953-9.7233 0.079-13.379 0.47748-1.6334-1.494-3.2519-3.7004-3.6317-3.2469-0.55883-2.26-7.0775 0.4712-8.1181 2.6647-1.0153 7.6272-3.593 9.2959-4.928 1.6687-1.335-2.079-3.6424-1.414-5.6733 0.68835-2.1023-3.2732-8.7078-3.5531-8.6478l-5.9486-0.0588-2.4638-2.9251c-3.6764-4.3648 1.5016-8.4029 4.1716-8.4029s2.3362-1.0012 3.3375-5.6737c1.0012-4.6724 3.5535-5.3202 2.886-6.9889-0.66749-1.6687-3.0136-1.5111-3.6811-5.5161-0.66749-4.005 0.1806-6.0139-2.3848-6.3708-5.0108-0.69705-10.6 0.49387-12.791-0.33416-2.8818-1.0895-15.278-9.8449-13.742-13.624-0.54163-0.24908-7.7299-0.78965-8.4222-0.60906-1.6467 0.42952-2.67-4.0049-2.67-4.0049s-1.6687-3.3374-3.3374-3.6712-7.6761-1.0012-7.6761-1.0012c-1.6157 0.50141-4.44-1.4919-4.8885-4.6037-0.29906-2.075-2.893-8.7041-2.7877-8.7461l-6.3412-3.6712s-3.9384-2.2224-4.6724-3.3374c-1.2612-1.9158-0.24349-4.5913 0-7.0087l-7.6762-1.0012c-5.2967 0.17698-8.3574-2.7205-12.349-4.3387-0.33683 2.0105-0.2375 4.2026-2.67 5.3399-1.6459 5.1569-4.3714-0.75302-6.6749-2.3362 0 0-0.86766-3.9384-2.67-4.6724-2.1399-0.87153-4.8282-3.5088-8.6383-4.535-5.5193-1.4865-9.6992 0.22643-12.535-0.314-2.3182-0.4418-9.1976 3.1802-11.2 3.8478-2.0025 0.66749-10.68 3.6712-13.016 5.0062-2.3362 1.335-5.9383 3.7885-8.6082 6.7922-2.67 3.0037-4.2506 4.3486-4.2506 5.6836s6.351 4.0333 6.351 4.0333 1.0107 5.9683 1.0107 7.9708 1.7974 17.572 0.79509 20.576c-0.99761 2.9892-4.5768 5.7784-7.7938 6.9889-4.5815 1.7239-3.2285 12.13-2.2671 13.291 2.503 3.0233-4.7642 6.7514-8.9329 4.4173-3.6488-2.043-4.6724-3.6712-6.3412-3.6712s-18.356 2.3362-19.691 3.0037c-1.335 0.66749-5.6737 5.6737-5.6737 5.6737s-3.3524-1.0444-5.3399-0.33375c-2.925 1.0458-6.9615-6.1427-6.6749-6.6749 0 0-3.853-1.9244-3.1101-4.3552 0.76929-2.5171 7.435-5.2096 4.7568-8.2428-3.2838-3.7192-6.9866-5.758-6.9866-9.0955 0-3.3375 0.66749-9.0111 0.66749-9.0111-2.608-0.38963-6.2786 1.6115-7.0086-3.0037l-1.0012-1.6687s-13.35 1.963-17.021 1.2955-62.332-3.6514-66.67-4.6527c-4.3387-1.0012-84.83-27.367-84.83-27.367z" style="fill:none;stroke-width:1px;stroke:#000">
  <title>Westburn</title>
 </path>
 <path id="g" d="m696.03 804.33c0 1.6687-0.16688 7.6761-0.16688 7.6761s1.8356 2.67 3.3375 4.0049c1.5018 1.335 3.3374 4.8393 6.0074 5.8406 2.67 1.0012 5.6737 2.1693 8.0099 2.8368s3.8381-0.83436 3.5043-1.5018c-0.33375-0.66749-2.0025-1.335-0.16687-3.5043 1.8356-2.1693 2.1693-3.6712 5.8405-4.0049 3.6712-0.33375 6.508 7.6761 8.1768 8.1768s2.1694 0.33375 5.3399 0.50062 8.0099-2.0025 10.179-2.67c2.1694-0.6675 3.5043-4.1718 3.5043-4.1718s-4.1718-1.0012-5.6737-1.1681c-1.5019-0.16687-7.5093-7.1755-8.1768-8.8442-0.66749-1.6687-2.5031-4.6724-1.0012-5.3399 1.5018-0.66749 4.1718-2.3362 8.1768-1.8356s5.6737 0.83437 8.3436 0.50062c2.67-0.33375 3.8381-0.66749 3.3375-4.0049-0.50062-3.3375-3.1706-4.1718-0.66749-5.6737 2.5031-1.5018 5.173 0.33375 7.3424-4.3387 2.1694-4.6724 2.1694-10.68 1.0012-11.681-1.1681-1.0012-1.8356-1.8356-3.6712-0.66749s-5.6737 3.1706-6.8418 1.8356c-1.1681-1.335-7.0086-10.68-7.0086-10.68s-5.0062-0.83436-6.8418-0.33374-7.0086 1.0012-8.1768 1.6687c-1.1681 0.66749-20.192 1.1681-20.859 1.5018s-4.5056 10.68-4.5056 10.68 0.16687 7.1755 0.83436 8.0099 4.1718 4.5056 4.6724 6.3412 2.0025 3.3375 0.50062 5.3399c-1.5019 2.0025-6.0074 2.0025-6.0074 2.0025s1.6687 0.66749 3.6712 5.3399c2.0025 4.6724 3.0037 8.1768 2.8368 10.179-0.16687 2.0025-1.5018 4.6724-3.5043 3.3374s-10.513-16.187-10.513-16.187z" style="fill:none;stroke-width:1px;stroke:#000">
  <title>Aborel</title>
 </path>
 <path id="h" d="m751.76 725.06c-0.16687 3.8381 1.5019 7.0087 1.1681 8.3436s0.33375 2.1693-1.1681 4.6724c-1.5018 2.5031-3.0037 4.005-3.6712 5.5068s-2.3362 1.0012 0.66749 2.3362c3.0037 1.335 3.1706-1.0012 5.3399 3.1706 2.1693 4.1718 0.66749 2.3362 3.0037 4.3387 2.3362 2.0025 4.3387 3.8381 5.6737 4.0049 1.335 0.16688 2.3362-1.1681 4.0049-0.16687 1.6687 1.0012 4.6724-0.33375 7.0087 2.0025 2.3362 2.3362 3.0037 5.5068 6.508 2.5031s8.8442-12.682 8.8442-12.682 0.50062-12.349-0.50062-13.85c-1.0012-1.5019-10.179-1.5019-14.184-4.005-4.005-2.5031-8.0099-7.0086-9.178-7.6761s-13.517 1.5018-13.517 1.5018z" style="fill:none;stroke-width:1px;stroke:#000">
  <title>Loehill</title>
 </path>
 <path id="i" d="m805.66 774.79c-0.16687 2.5031 1.6687 10.847 1.6687 10.847s3.8381-2.1694 6.8418-1.5019c3.0037 0.66749 5.8406 1.5019 8.6774 1.335 2.8368-0.16687 5.6737 6.0074 3.5043-1.335-2.1693-7.3424-3.8381-8.3436-3.0037-9.3449 0.83437-1.0012 0.33375-2.8368 2.67-2.0025 2.3362 0.83436 8.0099 3.3374 9.5118 4.3387 1.5018 1.0012 3.6712 2.0025 3.8381 1.1681 0.16687-0.83437 1.0012-4.6724 1.0012-4.6724s1.335-3.3374 3.0037-0.50062c1.6687 2.8368 5.3399 10.012 7.3424 11.514s3.6712-1.0012 3.3375-2.67c-0.33375-1.6687-1.8356-6.508 1.6687-6.508 3.5043 0 8.1768 3.8381 8.1768 3.8381s2.1842 3.1642 3.2974 3.6507c1.1132 0.48653 8.3359 0.61646 10.651 0.92799 2.3154 0.31153 9.6938-0.71622 10.896-0.89122s5.7246-1.2503 5.9917-3.2349c0.26702-1.9846-0.1816-4.9074-0.47748-6.4626-0.29588-1.5552-0.34699-4.9296 0.31756-7.3658 0.66454-2.4362 1.8475-4.9711 1.4085-6.7139-0.43901-1.7428 6.904-10.016 6.904-10.016s-3.9409-5.7499-5.5376-7.6485c-1.5967-1.8986-4.8983-7.3941-4.8983-7.3941l-6.9653-3.2944s2.2101-3.912 3.5681-5.2447c1.358-1.3327 3.8417-3.5241 2.6967-5.0252-1.145-1.5011-2.2582-1.9876-4.9711-1.8475-2.7129 0.14011-9.6271 0.22007-12.715 0.64645-3.0882 0.42637-15.199 2.8379-19.391 3.9577-4.1917 1.1198-4.5447 1.2406-8.0749 2.4494-3.5302 1.2088-17.501 9.9367-18.837 11.104-1.3357 1.1673-8.7455 9.9362-11.518 14.278s-5.8732 14.869-6.2166 16.17-0.46069 7.1782-0.46069 7.1782l-4.4112 0.24836z" style="fill:none;stroke-width:1px;stroke:#000">
  <title>Duvra</title>
 </path>
 <path id="j" d="m952.56 735.61c-1.9834 2.3525-2.1407 3.5219-1.1601 5.0826 0.98061 1.5607 3.6614 2.8738 5.3887 5.9637 1.7274 3.0898 2.5055 4.3852 3.891 6.4765s4.0526 1.7359 4.0526 1.7359 1.5921-1.2145 2.4783 1.0478c0.88621 2.2623 3.4275 2.8424 3.4232 6.4136-4e-3 3.5712 1.1158 5.865-0.63365 8.249-1.7495 2.3839-2.5005 4.426-4.4932 1.5385s-0.83687-4.3988-2.2266-2.9189c-1.3897 1.4799-1.6729 3.5848-2.1271 5.1906-0.45417 1.6057-0.33256 4.2414-1.0206 5.8157-0.68805 1.5743-1.3761 3.1485-2.5005 4.426-1.1244 1.2774-3.5891 1.8983-2.8424 3.4275s4.5025 3.7014 5.4517 5.4959c0.94914 1.7946 2.1007 3.8544 2.5506 5.82 0.4499 1.9655-0.4091 3.0405-0.55284 5.8786-0.14375 2.8381-1.7988 4.5204-0.69659 8.7167 1.1022 4.1963 3.2659 7.583 3.2659 7.583s9.2568 5.5317 10.566 6.4221 10.988 5.0503 12.063 5.9093c1.075 0.859 2.15 1.718 4.7364 3.7328 2.5864 2.0148 6.2792 4.6548 7.3993 6.9486 1.1201 2.2938 5.933 7.2275 5.933 7.2275s10.162 18.274 15.136 18.467c4.9745 0.19308 14.127-11.196 14.986-12.271 0.8591-1.075 6.5123-7.6961 6.6246-10.3 0.1123-2.6042 3.7006-16.885 2.6119-19.413-1.0886-2.5277-1.8983-3.5891-4.8129-4.9337-2.9146-1.3446-4.534-3.4675-5.5818-0.98915s-2.5319 4.6598-2.5319 4.6598-3.6929-2.64-5.2671-3.328c-1.5743-0.68806-1.5607 0.98061-5.285-1.4254-3.7243-2.4061-5.8208-9.8318-6.8643-10.925-1.0436-1.0929-4.0526-1.7359-6.1397-3.9216s-2.1186-1.9519-2.7709-4.1828 0.6251-1.1065-3.396-3.0762c-4.0212-1.9698-6.6704-3.5168-4.4396-4.1692 2.2308-0.65232 5.7391-0.18028 5.7391-0.18028s0.3777-2.8066-0.3061-4.8036c-0.6838-1.997-1.4892-6.6296-2.8883-10.39-1.399-3.76-3.8144-5.2756-0.50428-8.6402 3.3102-3.3645 4.2185-6.576 7.4478-7.5702 3.2294-0.99421 4.3631 2.9682 7.7225-2.5327 3.3595-5.501 1.4212-1.7137 3.3638-9.0722 1.9425-7.3585 3.2693-8.3706 0.08-14.753-3.1893-6.3821-1.8804-5.4916-7.3772-12.422-5.4967-6.9307-6.8685-7.3534-14.569-10.294-7.7004-2.941-7.3857-5.2799-12.954-4.6004-5.5682 0.67953-6.4765 3.891-7.2275 5.933-0.75099 2.042 1.0393 4.6641-1.1601 5.0826-2.1994 0.41844-2.4783-1.0478-4.5382 0.10375-2.0599 1.1516-2.8874 1.9927-3.1707 4.0977-0.28322 2.105 0.88621 2.2623-1.0206 5.8157s-2.082 6.6254-3.4718 8.1052c-1.3897 1.4798-1.394 5.0511-4.5561 2.0063-3.1621-3.0448-5.825-6.2605-5.825-6.2605z" style="fill:none;stroke-width:1px;stroke:#000">
  <title>Edezer</title>
 </path>
 <path id="k" d="m1047.7 918.43c8.4785 4.2363 9.4634 2.2258 11.938 6.8448 2.4741 4.619 5.6405 4.0926 6.3693 7.5244 0.7289 3.4318 0.1667 4.0705 0.99 6.8006 0.8232 2.7301-0.1344 8.078 0.563 11.744s-0.1931 4.9745 2.0828 5.757c2.2759 0.78246 1.6865-1.9162 3.8817 1.2366 2.1951 3.1528 2.537 4.1513 4.687 5.8693 2.1501 1.718-0.2381 3.5398 4.255 2.0012 4.4932-1.5385 3.135-0.29256 5.5232-2.1143s-2.2266-2.9189 3.5125-3.0992c5.7392-0.18029 5.7034 3.6248 6.5037-0.55365 0.8004-4.1785 0.8905-1.3089 0.9577-5.3479 0.067-4.039 0.9084-3.2115 0.085-5.9416-0.8233-2.7301-5.114-0.92621 0.1931-4.9745 5.3071-4.0483 7.4393-0.42778 5.2935-5.717-2.1458-5.2892-1.7724-4.5246-2.8296-7.2862-1.0571-2.7616-0.7288-3.4318-2.7394-4.4166s-1.4799-1.3897-4.0841-1.502c-2.6042-0.11227-1.9519 2.1186-4.0075-0.30109-2.0557-2.4197-1.2911-2.793-2.1951-3.1528-0.9041-0.35976-3.8188-1.7044-5.7528-1.4884s-0.688 1.5743-3.4181 2.3975-6.9715 0.49071-7.9071 0.36483c-0.9355-0.12588-7.8262-2.0055-7.8262-2.0055l-4.0713-12.216s-3.2744-0.44057-4.3044 0.13521c-1.0299 0.57578-1.2638 0.54431-4.4481 2.9733-3.1842 2.429-3.2514 6.468-3.2514 6.468z" style="fill:none;stroke-width:1px;stroke:#000">
  <title>Uros</title>
 </path>
 <path id="l" d="m867.22 985.51c5.5087 4.1087 10.954 6.1884 13.931 6.5889 2.9769 0.40054 20.113 0.68566 20.113 0.68566s24.877 0.31643 26.817 0.91422c1.9401 0.59779 5.3115 3.0719 13.536 4.5153 8.2246 1.4434 13.364 0.78787 15.196-0.31267s17.937-5.6686 17.937-5.6686 1.7428-0.43901 2.7412-5.356c0.99833-4.917-0.32473-5.095 0.16482-8.7334 0.48954-3.6384 1.8379-6.151 2.8554-8.7081 1.0176-2.5571 0.6423-2.2708-1.4505-4.2362-2.0928-1.9654-3.7274 0.17198-3.1044-4.4587 0.62306-4.6307 1.2654-6.9016-0.0577-7.0796-1.3231-0.17802-3.3076-0.44504-5.7312-2.4549s-0.59176-3.1104-4.1857-3.9307c-3.5939-0.82031-4.2999-0.57855-7.6076-1.0236-3.3076-0.44504-3.0214-0.0698-4.9362-3.3582-1.9148-3.2884-3.7406-7.2384-4.2241-8.6504-0.48351-1.4121-2.0423-7.3466-2.0423-7.3466s-0.21649-3.3966 0.22855-6.7043 1.4879-8.5554 1.4879-8.5554-0.25496-8.1164-1.133-11.602c-0.87802-3.4857-1.05-7.2131-1.05-7.2131s-3.1934-3.7972-6.6093-5.9406c-3.4159-2.1434-5.9032-6.1823-9.0774-7.6197-3.1741-1.4373-7.3406-3.0082-11.927-3.962-4.5862-0.95382-8.7081-2.8554-10.915-1.4686-2.2071 1.3868-7.2636 6.4312-8.7202 7.2455-1.4566 0.81428-6.5131 5.8587-6.5131 5.8587s-2.2516 1.7176-5.6038 1.6033c-3.3522-0.11427-5.801 0.56649-9.923-1.3351-4.1219-1.9016-3.3714-2.4741-9.4779-4.6428-6.1065-2.1686-12.532-14.483-12.532-14.483s-9.1977 0.78298-10.896 0.89122c-1.6983 0.10825-1.3676 0.15275-2.8049 3.3269-1.4373 3.1741-5.4126 7.6906-8.7647 7.5763-3.3522-0.11428-9.2867 1.4445-9.2867 1.4445l-3.4219 2.9071 2.1566 3.9944 3.1115 16.92s-2.2516 1.7176-3.7972 3.1934c-1.5456 1.4758-1.5456 1.4758-1.8126 3.4604-0.26702 1.9846 5.3115 3.0719 6.7428 4.9483 1.4313 1.8763 1.317 5.2285 2.5258 8.7587 1.2088 3.5302 6.5395 8.962 6.4697 11.983-0.0698 3.0214-0.16481 8.7334-0.56535 11.71-0.40053 2.9769 4.4082 2.2769 5.8395 4.1532 1.4313 1.8763 15.808 22.669 15.808 22.669z" style="fill:none;stroke-width:1px;stroke:#000">
  <title>Razano</title>
 </path>
 <path id="m" d="m653.58 1146.7c6.4818 1.8823 2.2901 3.0021 11.246 1.5131 8.9559-1.489 14.337-1.4385 19.368-3.7923 5.0312-2.3538 3.7972-3.1934 7.8806-6.0115s2.7159-2.6653 6.7103-4.8219c3.9944-2.1566-2.4236-2.0098 7.1493-3.0791 9.573-1.0692 10.502-2.9648 13.898-3.1813 3.3966-0.2165 2.5824-1.673 8.7779-0.1659s6.1955 1.5071 9.1279 2.2384 2.5571 1.0175 7.4994-0.6748c4.9422-1.6923 4.9422-1.6923 8.6696-1.8642 3.7274-0.172 4.7582 4.6812 6.6406-1.8006s0.97909-7.2768 2.4802-8.4218c1.5011-1.1451 6.4878-3.1682 6.6466-6.8511s1.4818-3.5049-0.52198-6.1318c-2.0038-2.6268-1.9148-3.2884-4.2747-3.2691-2.3598 0.019-2.0291 0.064-5.6675-0.4258-3.6384-0.4896-1.1703 1.1895-4.6307-0.6231s-5.2922-0.7121-4.9362-3.3582c0.35603-2.6461-0.87802-3.4856 0.57855-4.2999s2.5379-1.3423 2.5379-1.3423-0.0192-2.3599-2.2456-3.3329c-2.2263-0.9731-0.19725-1.0368-2.8434-1.3929-2.6461-0.356-2.6016-0.6868-5.9983-0.4703-3.3966 0.2165-1.8763 1.4313-5.3367-0.3813-3.4604-1.8126-5.706-5.1455-5.706-5.1455l-0.76978-1.7873s-0.90328-0.7951-2.2263-0.9731-0.94779-0.4643-2.9769-0.4005c-2.0291 0.064-0.28626-0.3753-4.389 0.083s-6.3735-0.184-9.4839 0.4078c-3.1104 0.5917-5.0758 2.6845-7.7026 4.6884-2.6269 2.0038-7.1746 5.7697-7.1746 5.7697s-0.089 0.6615-3.0022 2.2901c-2.9131 1.6285-4.9422 1.6923-6.157 3.2126s-5.0373 7.4043-7.6197 9.0773c-2.5824 1.6731-3.8417 3.5242-6.5768 3.8297s-2.0736 0.3945-4.7642 0.3692c-2.6906-0.025-2.3154-0.3115-4.6752-0.2923-2.3599 0.019-2.2516 1.7176-2.5186 3.7022-0.26702 1.9846 1.0368-0.1973-0.57855 4.2999-1.6154 4.4972-3.7142 7.5823-4.0258 9.8977-0.31153 2.3153-1.4241 10.584-2.0219 12.524-0.59779 1.9401-0.38734 10.387-0.38734 10.387z" style="fill:none;stroke-width:1px;stroke:#000">
  <title>Eempsull</title>
 </path>
 <path id="n" d="m714.09 1029.9c6.9713-1.7561 3.5109-3.5687 12.531-3.0286s6.7812 9.668 12.13-0.052c5.3488-9.7197 5.4823-10.712 4.9988-12.124-0.48351-1.412-0.24176-0.706-1.0308-4.8532-0.789-4.1472-2.1373-1.6346-1.0945-6.8823 1.0428-5.2478 1.2654-6.9016 3.8922-8.9054 2.6269-2.0038 3.1296 1.7681 4.0642-5.178s1.0236-7.6076 2.2697-16.869c1.2461-9.2614-1.317-5.2285 0.25986-14.445s2.8686-1.2978 0.98512-12.327c-1.8835-11.03-5.3054-8.1224-3.9066-16.016 1.3989-7.8938 1.5011-1.145 2.8362-11.068 1.3351-9.9229 0.64832-7.3213 0.0181-15.151-0.63023-7.8301 3.4472-5.5977-0.69397-9.8592s-1.584-3.2439-5.8587-6.5131c-4.2747-3.2692-4.8027-4.3505-8.2631-6.1631-3.4604-1.8126-0.65549-5.1395-7.6268-3.3834-6.9713 1.756-4.4972-1.6154-9.0449 2.1505-4.5477 3.7659-4.8785 3.7214-7.9696 6.673s-4.389 0.083-5.279 6.6983c-0.89008 6.6153-4.3444-0.24779-1.7994 10.871 2.545 11.119 2.9456 8.1416 3.2258 13.567 0.28023 5.4258 0.92969 15.616 0.37641 17.225-0.55329 1.6093-1.0873 5.5785-2.2384 9.1279-1.1511 3.5494-4.751 7.7796-1.4241 10.584 3.3269 2.8049 7.0928 7.3526 7.0928 7.3526s2.7796-0.63626 3.8104 4.217c1.0308 4.8532 0.89725 5.8455-1.2906 9.5922-2.1879 3.7467-3.5807 6.59-4.223 8.8609-0.6423 2.2708-2.6967 5.0252-4.0005 7.207-1.3038 2.1818-2.7159 2.6654-3.4027 5.267-0.6868 2.6016-0.7181 10.343-0.45711 13.409 0.26099 3.0659 7.0038 8.0142 7.3093 10.749 0.30549 2.7352 3.8044 9.2675 3.8044 9.2675z" style="fill:none;stroke-width:1px;stroke:#000">
  <title>Autumned</title>
 </path>
 <path id="o" d="m164.78 897.73c2.0857-10.495 0.17934-11.436 5.5328-16.093 5.3556-4.6587 20.035-17.957 27.197-21.934 7.8294-4.3472 23.827-6.8967 36.93-9.1747 13.103-2.278 21.843-7.1637 33.928-6.8846s27.835-1.6429 32.249-4.4165c4.4142-2.7736 47.248-5.766 56.649-10.563s8.9345-5.4264 14.922-10.789c6.0039-5.3774 25.961-30.275 29.882-39.142 1.4653-3.3142 2.1958-7.2534 3.1494-11.145 1.604-6.5464 3.3808-13.236 4.633-19.404 1.9966-9.8339 11.576-32.797 12.528-38.051 0.90586-5.0003-0.27558-16.382-1.4386-19.769-1.1928-3.4734-3.3339-9.8344-11.044-17.607-7.7098-7.7724-21.907-12.377-27.811-18.559-5.9032-6.1823-7.7483-12.492-13.919-16.69-6.1702-4.1977-10.178-9.4515-24.07-11.321-13.892-1.8692-38.33-0.44276-38.33-0.44276s-25.367 3.322-30.086 3.3605c-4.7197 0.0385-23.701 6.7675-23.998 7.2038-0.29682 0.4363-24.403 23.862-24.403 23.862l-46.418 13.161-42.176 32.067s-6.1886 4.406-6.5101 5.9105c-0.32149 1.5045-1.9043 7.9589-1.7265 9.2925 0.17775 1.3336 7.4218 7.666 7.7076 9.9666 0.28576 2.3006 3.7026 14.071 4.528 15.016 0.82541 0.94448 7.3925 6.1142 7.8266 8.1967s-6.2665 17.373-6.2665 17.373-4.8687 2.5596-6.1729 4.289c-1.3042 1.7295 1.024 10.972 0.90488 12.742-0.11907 1.7699-2.489 7.8803-3.7146 9.025s-4.9384 2.193-4.0207 4.2214c0.91768 2.0284 1.678 5.2263 3.1128 5.1812 1.4348-0.0451 5.8178-0.765 7.3538-0.67739 1.536 0.0876 3.9625-1.1337 3.2497 1.5088-0.71273 2.6425-2.0212 7.9432-2.4125 9.0812-0.39123 1.138 1.0729 2.6446 0.3151 3.8523-0.7578 1.2077-2.116 2.4537-2.2419 3.3892-0.12588 0.93554-0.43377 4.1087 0.088 4.6552 0.52178 0.54645 9.9452 10.149 10.146 12.2s-0.19308 4.9746-0.19308 4.9746-4.2346 0.50177-5.6851 0.66379c-1.4505 0.16201-0.58685 1.7069-0.4631 2.557 0.12374 0.85007 0.43884 4.7024 0.41417 5.7706-0.0247 1.0682 1.1966 3.4947 1.1966 3.4947s9.961 10.032 11.441 11.421c1.4798 1.3897 4.0955 4.9563 4.6713 5.9862 0.57578 1.03 2.4111 5.0868 2.7058 6.4361 0.29469 1.3493-0.27602 9.1305-1.1036 9.9716-0.82753 0.84114-1.7495 2.3839-1.8282 2.9686-0.0787 0.58471 0.43204 3.868 0.58725 4.4842 0.15521 0.61618 1.3068 2.6761 1.3068 2.6761z" style="fill:none;image-rendering:auto;stroke-width:1px;stroke:#000">
  <title>Coppermoore</title>
 </path>
 <path id="p" d="m647.57 860.99c1.3423 2.5379-16.163-2.5115-19.337-3.9488-3.1741-1.4373-14.77-5.3548-20.985-9.2218-6.2148-3.867-15.432-5.4438-19.598-7.0147s-16.049-5.8636-25.972-7.1987c-9.9229-1.3351-28.179-5.812-38.28-5.824-10.101-0.0121-37.738 2.6676-43.718 4.5572-5.979 1.8896-42.515 13.138-47.323 13.838-4.8087 0.7-31.492-1.2065-35.703-2.4466-4.2109-1.2401-16.126-15.303-15.592-19.272s22.018-47.864 22.24-49.518c0.22252-1.6538 6.5372-26.061 6.5372-26.061 0.16503-4.961 12.732-36.537 12.85-39.294l-1.1745-18.09-0.32356-0.7772c-1.064-2.5557-4.6699-9.8559-5.8333-11.708-1.3868-2.2071-9.3204-10.14-9.3204-10.14l-20.96-11.912s-7.8241-4.4202-7.2455-8.7202c0.57856-4.3 2.4417-13.142 7.2312-16.201 4.7895-3.0598 26.34-5.5483 31.632-4.8363 5.2922 0.71206 22.358 4.0186 25.202 5.4114 2.8434 1.3928 33.904 13.317 37.034 15.085 3.1296 1.7681 21.716 6.2894 26.678 6.957 4.9615 0.66756 34.576-14.206 34.576-14.206-0.12439-0.14988 18.109 3.7328 21.962 3.1617 2.5955-0.38478 10.03-1.782 10.328-1.3829 1.5569-0.5555 9.0487 11.078 10.407 13.034 1.386 1.9956 6.7407 10.697 7.555 12.153 0.81428 1.4566 2.2648 5.6928 0.19122 6.0873-2.0736 0.39451-6.9268 1.4253-8.9559 1.489-2.0291 0.0637-3.5049-1.4818-4.3252 2.1121s-2.3274 9.7894-2.3274 9.7894l6.8065 6.9774 7.7796 4.751 4.7582 4.6812 9.734 30.27s6.2857 18.357 5.9296 21.003c-0.35603 2.6461 0.38906 20.716 0.38906 20.716l16.692 7.5122s17.649 5.7781 19.586 6.8995c3.4893 2.0194 24.297 6.888 25.921 7.2304 2.3092 0.48667 5.8235-1.4922 13.563-3.9199l7.0093-2.1986c-1.7317-0.81235-8.9767 11.561-8.9298 15.214 0.0346 2.6905-0.37793 10.343 0.39187 12.131 0.76977 1.7873 5.7697 7.1746 6.2087 8.9174 0.43901 1.7428 0.68255 3.2193 0.68255 3.2193s-16.433 0.98141-18.309 2.4127c-1.8763 1.4313-5.3227 4.7503-5.6342 7.0657-0.31153 2.3154 1.6033 5.6038 1.6033 5.6038s-3.1889 0.74873-6.8718 0.58995-8.7303-1.0468-11.005-0.41835c-3.604 0.99571-0.88617 7.3839-2.2036 8.9129-1.8643 2.1637-2.3659 6.6061-1.5516 6.5263z" style="fill:none;stroke-width:1px;stroke:#000">
  <title>Portlin</title>
 </path>
 <path id="q" d="m361.78 425.86 24.695-10.011s5.6626-1.3812 8.937-0.94061c3.2744 0.44057 11.38 3.9123 12.689 4.8028 1.3089 0.89047 8.1354 4.1917 9.3061 3.3952 1.1298-0.76865 6.841-2.8767 8.4735-4.5748 2.214-2.303 13.152-1.123 16.579-1.103 4.8513 0.0283 12.631 2.1263 12.643 3.368 0.0122 1.1799 8.1818 4.6726 9.864 6.3277s29.978 15.423 29.978 15.423c9.7829 6.3686 19.802 12.662 30.705 18.356 0 0 12.465 38.45 13.023 41.382 0.55792 2.9325 8.0839 21.328 8.0839 21.328l6.428 10.628c0.69828 8.7406 4.3939 16.398 2.0946 26.222l-14.703 19.706s-8.3426 12.45-9.7229 19.17c-1.3804 6.7198-5.7741 16.368-3.8622 21.626s3.8504 16.624 8.5244 18.053l4.6741 1.43-32.951 14.053s-9.7603-1.7895-12.535-2.401c-2.7752-0.61152-11.645-3.7099-16.494-4.8385-4.8487-1.1286-34.931-14.701-34.931-14.701s-16.089-4.3078-17.024-4.4337c-0.93555-0.12588-16.313-0.85154-17.28-0.74353-0.96702 0.10801-18.057 2.398-18.057 2.398-3.125 0.5479-5.4278 2.3344-8.0947 3.5724-0.36138-0.21782-5.299 12.697-5.0399 14.337 0.19838 1.2553-4.5828-5.7477-7.3086-8.4956-2.7258-2.748-8.8026-7.1374-11.016-8.3876-2.213-1.2502-9.3061-3.3952-14.357-4.7892-5.0511-1.394-21.969-0.65723-25.508-0.89538-3.5398-0.23815-28.186 1.7669-28.186 1.7669l-17.375 1.7103-21.139 6.6806 11.233-13.778s6.7651-18.22 8.576-22.981c1.8063-4.7495 7.7213-22.322 12.58-26.985 3.8864-3.7299 28.207-35.603 28.207-35.603 20.627-24.318 36.455-48.554 61.186-73.56 2.814-8.5425 5.6224-17.086 6.6471-25.987z" style="fill:none;stroke-width:1px;stroke:#000">
  <title>Irritos</title>
 </path>
 <path id="r" d="m555.87 1128.9c-12.32 0.3184-15.303 1.7421-15.912 2.689-0.57067 0.8878-36.998 5.9754-45.279 5.5757-8.2804-0.3998-70.408-2.3298-75.567-4.6908-5.1591-2.361-9.8912-9.6651-12.324-9.2781s-3.9803 3.0363-6.5846 2.924c-2.6042-0.1123-6.9987-2.8466-8.7439-4.0339s-13.013-7.7039-17.177-6.8355c-4.1649 0.8683-8.1495 7.4758-10.88 8.2991-2.7301 0.8232-6.1754-0.1166-6.1754-0.1166s-65.672 1.4031-73.062-0.3056c-7.39-1.7087-5.1727-4.0296-5.1727-4.0296s-16.557-4.3708-20.519-3.2371-13.066-1.9962-15.077-2.981c-2.0106-0.9849-10.377-7.8255-11.623-9.1837-1.246-1.3583-5.5146-5.0282-7.3857-5.2799-1.8711-0.2518-7.9564 2.5012-10.624 2.8567s-7.9836-0.836-10.961-1.7129-11.429-1.7759-13.3-2.0276c-1.8711-0.2518-6.5445-4.4524-10.957-5.2842-4.4124-0.8318-16.39 0.9515-20.005-0.8511-3.4596-1.725-9.881-2.8239-14.587-2.4538-4.5254 0.356-16.356-0.018-17.337-1.5786-0.98061-1.5606-0.21579-9.4726 0.14398-10.377 0.35976-0.9041 5.7831 0.7478 6.1579-1.3561 0.37476-2.1038-5.0138-7.8349-0.56412-8.3322 1.4072-0.1572-0.40559-7.545 0.75024-9.0563s7.2266 0.2358 7.384-0.9337c0.15734-1.1694 0.7851-6.016 1.0685-6.9468 0 0-3.6198-4.6828-2.645-5.1183 6.2339-2.7854 20.636-16.478 20.558-16.522-2.8684-3.0237 4.1679-3.4299 2.0148-8.4317-0.72991-1.6956 9.2882-13.732 9.2882-13.732s1.1525-10.154 0.87354-11.621c-0.27896-1.4662 0.85721-8.8362 1.7791-10.379 0.92194-1.5428 0.27308-19.727 0.27308-19.727s2.0059-2.328 2.9446-3.767c1.0266-1.5736-0.0814-9.1211-1.2052-9.1233 1.2868-0.27305-5.1426-4.6527-1.957-6.6926 3.5385-2.2658 7.017-4.5422 7.017-4.5422l0.13666-5.5754-3.2565-2.3431c1.4919-0.77642-2.7516-3.7585-2.0828-5.757 1.269-3.7921-2.471-9.2822-3.5134-9.2832-0.30969-5.1155-1.7552-10.233-0.79261-15.346-2.9171-2.8466-5.3325-3.2147-7.0953-0.35936 1.2493-5.7452 1.3475-11.657 3.7478-17.236-0.2517-0.7602 9.4453-9.5682 10.96-10.669 1.6421-1.1936 19.308-14.309 19.308-14.309 0.85297-2.159 25.575-7.017 26.609-7.2333 12.16-2.5442 23.178-5.1786 33.658-7.8554 2.3769-1.5776 25.115-1.3874 29.131-1.9469 2.0901-0.29114 14.603-3.4664 14.708-4.2572l28.743-4.2866c0.0118 0.1205 21.461-3.9625 23.049-4.0668 3.5428-0.23273 17.619-11.356 17.476-11.753l20.818-23.139 7.7975-12.046s-17.577 36.866-18.486 40.078c-0.90834 3.2115 12.824 19.244 12.824 19.244 5.3792 2.062 11.724 2.6814 18.123 3.2202l20.579 0.40808 47.97-14.219 17.962-2.5462 19.709-1.6275c4.6475 0.19186 7.2455-0.40933 14.9 0.94594 0.014-0.0453 29.417 4.9965 29.417 4.9965 4.5948 1.0034 14.43 3.2832 18.442 4.8682 0.46857 0.3764 18.118 5.3209 21.666 6.8332 3.4811 1.4838 21.366 10.281 24.501 11.369 5.4363 1.8864 11.515 3.2838 16.718 4.331l3.342-0.14102s5.7075 5.3249 7.309 9.3503 3.464 11.42 3.2437 13.057 1.0444 13.475 1.3233 14.942c0.27896 1.4663 2.5192 6.0538 2.5192 6.0538s-2.1092 3.288-2.4869 6.0946c-0.37763 2.8066 0.86407 7.7361 0.90914 9.1709 0.0451 1.4348 5.1506 9.5034 5.1506 9.5034s3.0634 7.3177 3.3739 8.55c0.31042 1.2324-1.8932 5.222-3.4718 8.1052-1.5785 2.8832-1.65 10.493-1.8252 13.565-0.17521 3.072 1.1252 11.105 1.1252 11.105s5.3122 4.7628 4.8716 8.0372c-0.44056 3.2744 1.098 7.7676 1.422 10.669s1.6108 9.2653 1.251 10.169c-0.35976 0.90412-1.7495 2.3839-2.1722 3.7558-0.4227 1.3718 0.14882 5.973 0.14882 5.973l-1.1108 2.9461-4.5196 10.584-0.19735 8.5458s-2.6357 0.1216-3.868 0.432c-1.2324 0.3105-9.0616 0.7595-11.047 1.1823-2.5518 0.5434-6.8758 4.4238-6.4217 8.4602 0.38956 3.4626-2.7173 3.6213-3.5949 4.2075-1.569 1.0481-2.1602 4.3905-6.9894 2.3933-1.9875-0.8219-7.7307 0.6631-9.7574 3.1531-1.1612 1.4267-9.2044 5.4873-8.9015 8.1308 0.20182 1.7613 0.85673 5.7702 3.8564 5.1178 2.5291-0.5501 5.9094-0.768 5.8336-0.8819l-1.8461 2.8409s-2.4962 0.8547-3.5891 1.8982c-1.0929 1.0436-2.783 3.2001-2.8072 4.6924-0.0287 1.7727 1.4291 4.4195 4.3512 4.4964 2.2381 0.059-0.26464 4.0751-1.7 4.0881-1.6562 0.015-5.0688 1.8611-3.6743 3.9993 0 0-3.6854-0.1464-5.6194 0.07-1.934 0.2161-4.326-0.5788-6.9785 0.4682-2.786 1.0998-16.943 4.9364-20.782 5.4586-4.0838 0.5555-6.0742 5.8398-7.8687 6.7889-1.7946 0.9492-7.2962-1.6849-9.0414-2.8722-1.7452-1.1873-5.3857 0.6739-5.3857 0.6739-1.3585 1.9645-1.6962 3.931 0.59381 5.9029-2.8703-1.5408-5.6154-6.348-9.1374-0.5366l-2.9862 2.5294c-0.18654-0.094-3.0486 4.4078-2.4669 8.488 0.39763 2.7885 5.474 7.3107 6.7504 8.8536 1.2872 1.5559 10.973 6.9911 8.7469 8.0985-0.12252 2.822-2.8206-0.2752-4.2319-0.4153z" style="fill:none;stroke-width:1px;stroke:#000">
  <title>Wildlands</title>
 </path>
</svg>
